<?xml version="1.0" encoding="UTF-8" standalone="no"?>
<svg
   width="9933"
   height="4966"
   viewBox="0 0 9933 4966"
   version="1.1"
   id="svg1316"
   sodipodi:docname="maps.svg"
   inkscape:version="1.1.1 (3bf5ae0d25, 2021-09-20)"
   xmlns:inkscape="http://www.inkscape.org/namespaces/inkscape"
   xmlns:sodipodi="http://sodipodi.sourceforge.net/DTD/sodipodi-0.dtd"
   xmlns="http://www.w3.org/2000/svg"
   xmlns:svg="http://www.w3.org/2000/svg">
  <defs
     id="defs1320" />
  <sodipodi:namedview
     id="namedview1318"
     pagecolor="#ffffff"
     bordercolor="#666666"
     borderopacity="1.0"
     inkscape:pageshadow="2"
     inkscape:pageopacity="0.0"
     inkscape:pagecheckerboard="0"
     showgrid="false"
     inkscape:zoom="0.25000001"
     inkscape:cx="5039.9999"
     inkscape:cy="2871.9999"
     inkscape:window-width="3840"
     inkscape:window-height="2066"
     inkscape:window-x="2869"
     inkscape:window-y="-11"
     inkscape:window-maximized="1"
     inkscape:current-layer="svg1316" />
  <desc
     id="desc2">Produce by Acme CAD Converter</desc>
  <path
     style="fill:#ebdc94;fill-opacity:0.0627451;stroke:none;stroke-width:0.271222;stroke-linecap:round;stroke-linejoin:round;stroke-miterlimit:4;stroke-dasharray:none;stroke-opacity:1"
     d="m 2382.9602,1422.5092 c 0,-1.472 3.653,-21.5855 8.1163,-44.6739 l 8.1132,-41.9809 -16.2523,-48.5892 c -13.3354,-39.8671 -16.2506,-51.8027 -16.2506,-66.5547 0,-9.881 -0.8028,-31.0989 -1.7745,-47.1497 l -1.7745,-29.1804 -12.3991,-5.3151 c -6.8192,-2.9237 -12.8212,-5.735 -13.3396,-6.2517 -1.4504,-1.4504 186.6702,-295.26115 191.5138,-299.09914 2.8223,-2.23925 14.2297,-3.39098 33.5955,-3.39098 23.6418,0 29.316,-0.7605 29.316,-3.88869 0,-2.14334 -4.8715,-17.08844 -10.8203,-33.22244 -5.95,-16.1395 -10.8341,-31.29331 -10.8498,-33.68297 0,-2.38881 6.5319,-17.71542 14.5522,-34.05772 l 14.5805,-29.71316 72.787,-30.47366 72.7811,-30.47492 142.9406,4.18571 c 78.6159,2.29966 149.3141,4.1857 157.1079,4.1857 h 14.1622 l -1.7745,26.44428 c -0.9717,14.54245 -2.5168,32.91401 -3.4125,40.82195 l -1.6237,14.37176 -235.2834,196.62727 -235.2844,196.62301 -77.5824,100.1735 -77.5807,100.176 -20.5479,52.1775 c -19.991,50.7617 -22.9865,57.5162 -22.9865,51.9126 z"
     id="path5562" />
  <path
     style="fill:#f7db49;fill-opacity:0.5;stroke:none;stroke-width:0.271222;stroke-linecap:round;stroke-linejoin:round;stroke-miterlimit:4;stroke-dasharray:none;stroke-opacity:1"
     d="m 2247.3487,1895.5086 v -54.96 l 33.7764,-15.8662 c 29.8031,-13.9974 34.7109,-15.537 41.7303,-13.0933 7.3261,2.5562 33.669,-9.3431 333.0521,-150.4042 178.8037,-84.2507 361.1056,-170.1492 405.1132,-190.88 l 80.0114,-37.6954 31.6124,-46.3635 c 17.3876,-25.5038 32.6382,-46.5962 33.8803,-46.8751 1.2396,-0.2831 3.6563,12.3074 5.3476,27.9725 4.5968,42.4583 17.5367,74.2205 40.3741,99.0804 9.5455,10.3978 17.4167,19.9179 17.4873,21.1571 0,1.2397 -3.8858,-0.2112 -8.7851,-3.2503 -7.8995,-4.8798 -11.8274,-5.3235 -34.5774,-3.8996 l -25.6728,1.6012 -397.3398,187.1519 c -218.5394,102.9321 -408.56,192.3881 -422.2731,198.7987 -23.6938,11.0652 -25.0978,12.2034 -28.313,22.9278 -1.8607,6.2052 -5.8956,12.8947 -8.9697,14.8665 -6.6205,4.2389 -92.443,44.6903 -94.8149,44.6903 -0.9151,0 -1.6237,-24.7302 -1.6237,-54.96 z"
     id="path5601" />
  <path
     style="fill:#99d24a;fill-opacity:0.5;stroke:none;stroke-width:0.271222;stroke-linecap:round;stroke-linejoin:round;stroke-miterlimit:4;stroke-dasharray:none;stroke-opacity:1"
     d="m 2992.4938,1492.972 c -0.69,-1.2108 -8.0867,-22.9713 -16.431,-48.331 -26.5892,-80.8255 -58.8682,-198.6861 -72.4812,-264.6172 l -13.1904,-63.9116 9.2751,-131.3692 c 5.1038,-72.25046 9.3191,-131.6341 9.374,-131.95689 0,-0.32532 33.5254,-28.64972 74.3811,-62.94827 l 74.2924,-62.34959 1.9042,-24.14883 1.9038,-24.14714 46.5316,-1.88309 c 45.2975,-1.81801 47.5579,-1.64479 85.7221,6.49805 21.5572,4.61117 39.633,8.81504 40.1683,9.35289 0.5209,0.52094 4.6209,78.17094 9.088,172.53336 l 8.1192,171.57301 -11.1063,104.69 c -9.516,89.7246 -12.5047,109.9261 -20.8745,141.3051 -5.367,20.1406 -11.0128,39.0559 -12.5398,42.0371 -1.5138,2.9871 -17.9038,27.4878 -36.4038,54.4505 l -33.6278,49.024 -68.3111,32.006 c -79.6695,37.3304 -74.1939,35.0096 -75.8066,32.1886 z"
     id="path5640" />
  <path
     style="fill:#63d8b7;fill-opacity:0.5;stroke:none;stroke-width:0.271222;stroke-linecap:round;stroke-linejoin:round;stroke-miterlimit:4;stroke-dasharray:none;stroke-opacity:1"
     d="m 2727.4156,1597.2493 c -12.6805,-4.6404 -23.4217,-8.6892 -23.867,-9.0048 -0.4504,-0.3084 -26.8934,-55.8448 -58.774,-123.3983 l -57.964,-122.8233 4.5334,-12.1485 4.5279,-12.1524 150.9086,-71.0421 150.9144,-71.0476 5.8783,30.0862 c 7.7752,39.7771 50.7253,192.1801 69.8363,247.8005 8.3418,24.2713 14.6806,44.5501 14.092,45.0583 -4.6124,4.0041 -228.4123,107.4067 -232.1768,107.2728 -2.6673,0 -15.2282,-3.9631 -27.9091,-8.6008 z"
     id="path5679" />
  <path
     style="fill:#63d8b7;fill-opacity:0.5;stroke:none;stroke-width:0.271222;stroke-linecap:round;stroke-linejoin:round;stroke-miterlimit:4;stroke-dasharray:none;stroke-opacity:1"
     d="m 2563.9449,1248.9728 -28.9552,-61.4133 26.3711,-33.6631 c 26.0962,-33.3112 28.0245,-35.0451 183.6169,-164.89756 86.4827,-72.17694 157.5151,-130.95809 157.8531,-130.62305 0.3254,0.32532 -3.47,58.69665 -8.4512,129.68933 l -9.0597,129.08768 5.3501,26.326 c 2.9436,14.482 4.9445,26.6851 4.4477,27.1232 -2.7083,2.3829 -296.9994,139.8053 -299.3755,139.7981 -1.559,0 -15.8733,-27.6497 -31.7973,-61.4273 z"
     id="path5718" />
  <path
     style="fill:#63d8b7;fill-opacity:0.5;stroke:none;stroke-width:0.271222;stroke-linecap:round;stroke-linejoin:round;stroke-miterlimit:4;stroke-dasharray:none;stroke-opacity:1"
     d="m 2618.9248,1668.9196 c 0,-1.2113 3.6732,-12.2499 8.1614,-24.5489 l 8.1598,-22.36 -81.2933,-172.7615 c -44.7131,-95.0202 -81.6422,-174.1038 -82.0689,-175.7376 -1.0846,-4.1646 58.0498,-80.3734 60.3596,-77.7865 1.0423,1.1408 14.4313,28.8073 29.7706,61.4472 l 27.8867,59.3384 -4.2588,13.3202 -4.2588,13.3184 58.6979,124.597 58.6992,124.5893 25.0543,8.8543 c 13.776,4.8744 24.1864,9.633 23.1289,10.5836 -2.276,2.0335 -124.5065,59.3402 -126.6034,59.3402 -0.7744,0 -1.428,-0.9718 -1.428,-2.1941 z"
     id="path5757" />
  <path
     style="fill:#63d8b7;fill-opacity:0.5;stroke:none;stroke-width:0.271222;stroke-linecap:round;stroke-linejoin:round;stroke-miterlimit:4;stroke-dasharray:none;stroke-opacity:1"
     d="m 2400.2134,1528.0438 c -6.8204,-14.5438 -15.7617,-33.8013 -19.8684,-42.7908 l -7.4644,-16.3491 29.0934,-73.5082 c 26.6754,-67.4069 30.5117,-75.3402 46.2088,-95.5907 9.4104,-12.1439 17.9829,-21.1402 19.0434,-19.9897 2.0563,2.2422 94.8204,198.5382 95.6218,202.3648 0.393,1.8603 -144.7472,72.3067 -148.9637,72.3067 -0.69,0 -6.8475,-11.8947 -13.6709,-26.443 z"
     id="path5796" />
  <path
     style="fill:#63d8b7;fill-opacity:0.5;stroke:none;stroke-width:0.271222;stroke-linecap:round;stroke-linejoin:round;stroke-miterlimit:4;stroke-dasharray:none;stroke-opacity:1"
     d="m 2456.3045,1646.5973 c -21.5699,-45.892 -38.6587,-84.476 -37.9726,-85.7392 1.4505,-2.6901 146.8061,-71.9095 148.1623,-70.5546 0.4927,0.4927 14.91,30.4834 32.0183,66.6325 l 31.1087,65.7182 -10.0965,27.236 -10.0918,27.2344 -51.5323,24.3357 c -28.343,13.3861 -53.9731,25.2934 -56.9589,26.4595 -4.9247,1.9266 -9.0204,-5.5305 -44.6372,-81.3225 z"
     id="path5835" />
  <path
     style="fill:#63d8b7;fill-opacity:0.5;stroke:none;stroke-width:0.271222;stroke-linecap:round;stroke-linejoin:round;stroke-miterlimit:4;stroke-dasharray:none;stroke-opacity:1"
     d="m 2247.3487,1809.3499 v -24.4966 l 59.9135,-151.1224 c 32.9495,-83.1142 60.799,-152.0536 61.8806,-153.1913 1.6887,-1.7745 20.8352,37.7389 107.5955,222.1219 l 14.207,30.1973 -80.234,37.6097 c -44.1301,20.6843 -81.5497,37.1407 -83.1493,36.5631 -10.7344,-3.8629 -17.1298,-2.2548 -46.3765,11.6454 -17.5519,8.3461 -32.3509,15.1694 -32.8777,15.1694 -0.521,0 -0.9574,-11.023 -0.9574,-24.4965 z"
     id="path5874" />
  <path
     style="fill:#ebdc94;fill-opacity:0.0627451;stroke:none;stroke-width:0.271222;stroke-linecap:round;stroke-linejoin:round;stroke-miterlimit:4;stroke-dasharray:none;stroke-opacity:1"
     d="m 2177.2746,2053.4281 c -54.8169,-289.107 -57.7545,-306.2225 -55.604,-323.9603 l 2.2731,-18.7311 78.2905,-49.2421 78.2951,-49.2449 34.1279,-53.7014 c 18.7674,-29.5353 34.5326,-52.483 35.0282,-51 0.4931,1.472 -23.3909,63.7654 -53.0799,138.4025 l -53.9829,135.7013 -2.0563,209.8544 c -1.1268,115.4127 -2.8193,245.2444 -3.7391,288.5012 l -1.6659,78.6581 z"
     id="path5913" />
  <path
     style="fill:#63d8b7;fill-opacity:0.5;stroke:none;stroke-width:0.271222;stroke-linecap:round;stroke-linejoin:round;stroke-miterlimit:4;stroke-dasharray:none;stroke-opacity:1"
     d="m 2391.4199,1979.9723 -38.5814,-73.3828 3.7603,-11.2807 3.7577,-11.2808 83.8578,-39.7095 c 46.1171,-21.8403 84.6859,-38.9274 85.7024,-37.9755 2.2536,2.0998 72.7617,149.5354 72.6645,151.9297 0,0.9295 -27.1372,16.3406 -60.2219,34.2394 -33.0885,17.8996 -71.9023,38.9122 -86.2546,46.696 l -26.1008,14.1495 z"
     id="path5952" />
  <path
     style="fill:#63d8b7;fill-opacity:0.5;stroke:none;stroke-width:0.271222;stroke-linecap:round;stroke-linejoin:round;stroke-miterlimit:4;stroke-dasharray:none;stroke-opacity:1"
     d="m 2244.635,2056.915 v -97.423 l 52.0888,-24.6457 52.0841,-24.6372 37.4195,71.4515 c 20.58,39.3039 37.3955,72.4689 37.3701,73.7026 0,1.7094 -165.6326,93.6091 -176.7161,98.0749 -1.2396,0.4926 -2.2464,-42.9374 -2.2464,-96.5231 z"
     id="path5991" />
  <path
     style="fill:#63d8b7;fill-opacity:0.5;stroke:none;stroke-width:0.271222;stroke-linecap:round;stroke-linejoin:round;stroke-miterlimit:4;stroke-dasharray:none;stroke-opacity:1"
     d="m 2241.9407,2261.7587 c 0,-31.7315 0.7749,-67.4691 1.7099,-79.4245 l 1.6887,-21.7305 89.5375,-48.789 c 49.2453,-26.83 90.581,-48.7819 91.8544,-48.7819 2.325,0 68.2929,118.0199 66.7973,119.5084 -1.0001,1 -227.608,124.6066 -241.4393,131.689 l -10.1696,5.2166 z"
     id="path6030" />
  <path
     style="fill:#63d8b7;fill-opacity:0.5;stroke:none;stroke-width:0.271222;stroke-linecap:round;stroke-linejoin:round;stroke-miterlimit:4;stroke-dasharray:none;stroke-opacity:1"
     d="m 2467.0403,2121.0674 c -17.1535,-31.4255 -31.5228,-58.5585 -31.9296,-60.3004 -0.6477,-2.7353 169.8589,-98.3851 171.48,-96.1978 0.3254,0.4508 12.585,22.7926 27.2259,49.6395 14.6397,26.8554 29.4749,53.7957 32.9618,59.8712 l 6.3502,11.0526 -85.3814,46.5819 c -46.9608,25.6234 -86.3137,46.5638 -87.449,46.5384 -1.1268,0 -16.1044,-25.7569 -33.2579,-57.1854 z"
     id="path6069" />
  <path
     style="fill:#63d8b7;fill-opacity:0.5;stroke:none;stroke-width:0.271222;stroke-linecap:round;stroke-linejoin:round;stroke-miterlimit:4;stroke-dasharray:none;stroke-opacity:1"
     d="m 2644.9043,2023.025 c -17.314,-31.6959 -31.6199,-58.839 -31.7872,-60.3051 -0.2535,-2.1716 136.5769,-79.4312 141.5244,-79.9099 0.8027,0 13.9074,22.7782 29.1246,50.7942 l 27.6624,50.9395 -4.2293,14.8678 -4.2279,14.8619 -60.7767,33.1945 c -33.4222,18.2533 -61.903,33.1929 -63.2875,33.1929 -1.3803,0 -16.6887,-25.9343 -34.0028,-57.6358 z"
     id="path6108" />
  <path
     style="fill:#63d8b7;fill-opacity:0.5;stroke:none;stroke-width:0.271222;stroke-linecap:round;stroke-linejoin:round;stroke-miterlimit:4;stroke-dasharray:none;stroke-opacity:1"
     d="m 2600.0897,1939.1486 c -4.3065,-9.4356 -20.6966,-43.9949 -36.4237,-76.802 -15.7254,-32.8054 -27.7299,-60.3837 -26.6695,-61.2862 1.0563,-0.9016 26.04,-12.9399 55.5208,-26.7514 l 53.6038,-25.1079 18.7717,4.604 c 10.3187,2.5253 20.5926,6.0092 22.8247,7.736 3.9335,3.0504 64.1625,111.3329 64.0497,115.1553 0,1.0419 -20.4321,12.8888 -45.3397,26.3146 -24.9064,13.4228 -57.2644,30.9046 -71.8956,38.8501 l -26.6145,14.441 z"
     id="path6147" />
  <path
     style="fill:#f7db49;fill-opacity:0.5;stroke:none;stroke-width:0.271222;stroke-linecap:round;stroke-linejoin:round;stroke-miterlimit:4;stroke-dasharray:none;stroke-opacity:1"
     d="m 4455.5421,3588.2536 -14.2636,-30.9076 -60.2164,-21.4064 c -153.7575,-54.6588 -360.6544,-146.2627 -516.137,-228.5319 -79.9074,-42.2779 -83.565,-44.578 -172.4843,-108.8301 -153.9239,-111.2206 -238.0281,-184.8353 -304.2097,-266.2793 -54.0378,-66.4973 -97.5865,-130.2369 -163.0723,-238.6745 -201.8872,-334.3086 -223.7148,-372.4591 -435.2905,-760.7789 -51.2058,-93.9779 -94.5766,-172.4898 -96.3807,-174.4629 -1.7969,-1.9701 -11.4865,-5.6657 -21.5065,-8.1935 l -18.2182,-4.5955 58.523,-27.5259 c 32.1902,-15.1352 58.5247,-26.6767 58.5247,-25.6513 0,1.014 -2.3956,10.3851 -5.3176,20.7968 l -5.3193,18.9254 87.1305,160.0219 c 181.4232,333.1835 250.0486,454.3958 365.8019,646.0684 118.9591,196.9919 174.8149,283.0086 220.1576,339.0381 62.4919,77.2287 182.1245,181.9116 322.0844,281.8425 63.6568,45.4538 112.3976,73.3617 240.0349,137.4435 120.3871,60.4399 272.6942,125.008 407.2832,172.6643 l 54.6969,19.3632 27.3509,-13.7211 c 15.0368,-7.5518 27.3442,-12.3032 27.3442,-10.5684 0,2.2899 -34.6222,129.3627 -41.5528,152.5001 -0.393,1.2958 -7.1217,-11.5414 -14.9633,-28.5369 z"
     id="path6186" />
  <path
     style="fill:#63d8b7;fill-opacity:0.5;stroke:none;stroke-width:0.271222;stroke-linecap:round;stroke-linejoin:round;stroke-miterlimit:4;stroke-dasharray:none;stroke-opacity:1"
     d="m 2796.0254,1786.5319 -29.6891,-54.366 5.6446,-22.4643 5.6518,-22.4601 59.6473,-28.145 c 32.8058,-15.4762 60.3866,-27.3417 61.2865,-26.367 4.9885,5.3869 64.7156,137.1699 62.9061,138.805 -1.183,1.0562 -32.2228,17.1142 -68.9605,35.6505 l -66.7977,33.71 z"
     id="path6225" />
  <path
     style="fill:#63d8b7;fill-opacity:0.5;stroke:none;stroke-width:0.271222;stroke-linecap:round;stroke-linejoin:round;stroke-miterlimit:4;stroke-dasharray:none;stroke-opacity:1"
     d="m 2965.0778,1760.0087 c -2.121,-4.8841 -16.835,-36.2476 -32.6986,-69.6914 -15.8577,-33.4419 -27.8808,-61.6721 -26.7159,-62.7296 2.9473,-2.6816 124.8331,-59.5357 127.6313,-59.5357 2.0339,0 66.5171,133.2744 64.9763,134.3095 -0.3507,0.2408 -29.5961,15.3029 -64.9873,33.4802 l -64.3467,33.0521 z"
     id="path6264" />
  <path
     style="fill:#63d8b7;fill-opacity:0.5;stroke:none;stroke-width:0.271222;stroke-linecap:round;stroke-linejoin:round;stroke-miterlimit:4;stroke-dasharray:none;stroke-opacity:1"
     d="m 3080.1794,1650.0956 c -12.4113,-26.4794 -26.5414,-56.7502 -31.4002,-67.276 l -8.8344,-19.1266 81.7326,-38.3389 c 79.1099,-37.1111 82.4561,-38.3997 104.2389,-40.1561 l 22.5053,-1.818 21.5754,13.0426 c 12.5808,7.605 24.3064,17.0576 28.1203,22.6671 10.5118,15.4792 36.842,59.8163 36.7715,61.9343 0,2.0774 -225.6819,117.2054 -229.7113,117.2054 -1.3381,0 -12.5833,-21.6642 -24.9981,-48.1406 z"
     id="path6303" />
  <path
     style="fill:#63d8b7;fill-opacity:0.5;stroke:none;stroke-width:0.271222;stroke-linecap:round;stroke-linejoin:round;stroke-miterlimit:4;stroke-dasharray:none;stroke-opacity:1"
     d="m 2893.4006,1947.7972 c -4.9204,-1.1686 -9.7217,-2.8869 -10.6651,-3.8304 -0.9295,-0.9295 -13.5399,-23.3418 -27.9923,-49.7705 l -26.2783,-48.0636 67.6245,-34.6196 c 37.1897,-19.0408 68.4645,-34.6142 69.4886,-34.6028 3.3052,0 63.0353,112.1286 60.8907,114.2622 -1.1268,1.1268 -25.6318,14.9396 -54.4265,30.6777 -53.818,29.4157 -58.0684,30.8201 -78.6416,25.947 z"
     id="path6342" />
  <path
     style="fill:#63d8b7;fill-opacity:0.5;stroke:none;stroke-width:0.271222;stroke-linecap:round;stroke-linejoin:round;stroke-miterlimit:4;stroke-dasharray:none;stroke-opacity:1"
     d="m 3014.6556,1852.2336 c -10.819,-19.811 -24.9486,-45.6245 -31.4044,-57.367 -6.4546,-11.7413 -11.7371,-21.5281 -11.7371,-21.7419 0,-1.3803 130.1482,-64.9327 130.9636,-63.9327 3.1814,3.9094 59.2303,108.9163 58.4626,109.5247 -0.5209,0.4098 -22.8936,12.6564 -49.7451,27.2259 -26.8541,14.5763 -55.1333,30.0524 -62.8469,34.4025 l -14.0283,7.8995 z"
     id="path6381" />
  <path
     style="fill:#63d8b7;fill-opacity:0.5;stroke:none;stroke-width:0.271222;stroke-linecap:round;stroke-linejoin:round;stroke-miterlimit:4;stroke-dasharray:none;stroke-opacity:1"
     d="m 3242.0642,1825.0103 c -2.1885,-3.342 -7.1795,-12.4017 -11.0918,-20.1262 -3.9154,-7.7263 -8.3347,-14.8032 -9.8232,-15.72 -1.4944,-0.9155 -14.2454,4.5419 -28.3387,12.1456 l -25.6311,13.8141 -6.6785,-11.6593 c -37.142,-64.8808 -53.7264,-97.9203 -50.2872,-100.1663 3.7138,-2.4324 227.8751,-116.265 228.944,-116.265 0.3084,0 10.7454,17.3943 23.1783,38.652 12.4342,21.2543 27.9949,44.4356 34.5732,51.5053 l 11.9737,12.8606 -40.3589,47.8524 c -43.3781,51.4338 -38.753,47.6778 -99.0437,80.4541 l -23.4348,12.7384 z"
     id="path6420" />
  <path
     style="fill:#99d24a;fill-opacity:0.5;stroke:none;stroke-width:0.271222;stroke-linecap:round;stroke-linejoin:round;stroke-miterlimit:4;stroke-dasharray:none;stroke-opacity:1"
     d="m 4563.4724,3015.6207 -80.1256,-52.1293 -222.2814,-194.1206 -222.29,-194.1201 -166.7987,-165.2157 -166.806,-165.2161 -178.6934,-219.7236 c -98.282,-120.8536 -181.7173,-223.6774 -185.4116,-228.5121 l -6.7148,-8.785 38.7065,-46.137 c 21.2915,-25.3754 39.2857,-46.1345 39.9829,-46.1345 0.6899,0 22.1626,19.9293 47.7057,44.2924 46.4129,44.2805 46.6144,44.4313 502.0863,376.4627 250.6089,182.6949 547.936,397.1571 660.7209,476.5884 l 205.0646,144.4202 5.6141,19.2491 5.6184,19.2424 -15.8509,46.8016 -15.853,46.8032 -79.414,99.2592 c -43.6763,54.5955 -80.7017,99.2296 -82.2709,99.1891 -1.5581,0 -38.9122,-23.5362 -82.9891,-52.2143 z"
     id="path6459" />
  <path
     style="fill:#63d8b7;fill-opacity:0.5;stroke:none;stroke-width:0.271222;stroke-linecap:round;stroke-linejoin:round;stroke-miterlimit:4;stroke-dasharray:none;stroke-opacity:1"
     d="m 3309.4644,2067.7788 c -49.4891,-84.7747 -94.3037,-163.865 -93.3755,-164.7902 0.5632,-0.5637 11.3725,-6.7153 24.012,-13.6552 12.637,-6.9459 24.0487,-13.64 25.3559,-14.8737 1.3376,-1.2532 -1.9688,-10.0133 -7.5289,-19.9644 l -9.9077,-17.7184 6.1698,-3.8207 c 18.1421,-11.2161 73.2784,-40.012 75.2291,-39.284 4.4683,1.6659 171.0871,208.677 169.7279,210.8752 -0.7605,1.2396 -23.0642,14.2032 -49.5622,28.8272 -26.5034,14.616 -63.7776,35.5086 -82.8336,46.4243 -19.0607,10.9149 -35.5564,19.8448 -36.6688,19.8448 -1.0985,0 -10.3838,-14.3379 -20.618,-31.8649 z"
     id="path6498" />
  <path
     style="fill:#63d8b7;fill-opacity:0.5;stroke:none;stroke-width:0.271222;stroke-linecap:round;stroke-linejoin:round;stroke-miterlimit:4;stroke-dasharray:none;stroke-opacity:1"
     d="m 2908.456,1992.7107 c -11.5596,-21.3363 -21.0194,-39.3251 -21.0194,-39.977 0,-0.6481 7.1403,0 15.8632,1.4281 l 15.8678,2.625 148.0808,-80.7229 c 81.4453,-44.395 148.9981,-80.7368 150.1262,-80.7566 2.2887,0 41.5064,70.9094 41.5335,75.1429 0,1.4931 -17.4704,12.1582 -38.8422,23.7039 l -38.8598,20.9868 -22.7978,-6.6936 c -12.5411,-3.6787 -24.5895,-6.7136 -26.781,-6.7431 -2.1814,0 -45.7031,22.6629 -96.7145,50.4338 l -92.7388,50.4985 -4.6741,12.5638 c -2.5658,6.9079 -5.4262,13.4043 -6.3459,14.4326 -0.9295,1.014 -11.1371,-15.5932 -22.698,-36.9307 z"
     id="path6537" />
  <path
     style="fill:#63d8b7;fill-opacity:0.5;stroke:none;stroke-width:0.271222;stroke-linecap:round;stroke-linejoin:round;stroke-miterlimit:4;stroke-dasharray:none;stroke-opacity:1"
     d="m 3115.8274,2044.7217 c -12.2905,-20.4207 -55.287,-100.0818 -54.4095,-100.7958 4.5136,-3.6855 68.4264,-36.8336 70.9335,-36.7901 1.7745,0 13.6269,3.1379 26.3074,6.8994 l 23.0513,6.8433 14.0777,-7.5193 c 7.7373,-4.1333 14.5243,-6.9315 15.0748,-6.2192 3.2841,4.2462 40.012,70.7916 40.0011,72.4757 0,1.8607 -125.1286,73.9206 -128.354,73.9206 -0.7605,0 -3.767,-3.9631 -6.6823,-8.8146 z"
     id="path6576" />
  <path
     style="fill:#63d8b7;fill-opacity:0.5;stroke:none;stroke-width:0.271222;stroke-linecap:round;stroke-linejoin:round;stroke-miterlimit:4;stroke-dasharray:none;stroke-opacity:1"
     d="m 2972.1394,2108.6079 c -7.3967,-13.1355 -19.1054,-34.3535 -26.0205,-47.1523 l -12.5694,-23.2658 6.9514,-16.1099 6.9518,-16.1057 50.6789,-27.5626 c 27.8736,-15.1593 52.3575,-27.9526 54.4096,-28.4284 2.3841,-0.5636 14.2902,18.1139 33.1688,52.0208 16.1944,29.0878 29.4693,53.6803 29.5006,54.6419 0,0.9578 -26.495,16.7496 -58.9388,35.0831 -32.4437,18.3239 -61.6216,34.9927 -64.8398,37.0364 -5.5951,3.5562 -6.422,2.6943 -19.2926,-20.1575 z"
     id="path6615" />
  <path
     style="fill:#63d8b7;fill-opacity:0.5;stroke:none;stroke-width:0.271222;stroke-linecap:round;stroke-linejoin:round;stroke-miterlimit:4;stroke-dasharray:none;stroke-opacity:1"
     d="m 3063.7302,2244.301 c -3.7319,-0.5915 -9.4175,-1.6241 -12.6399,-2.3365 -4.3306,-0.9295 -13.4186,-14.8483 -34.863,-53.3913 -15.9523,-28.6666 -27.964,-52.5041 -26.6868,-52.9646 1.2819,-0.4508 30.9819,-17.1341 66.0215,-37.0477 l 63.7059,-36.1986 33.1958,60.0052 c 18.2559,33.0027 33.2179,60.6355 33.2517,61.4116 0.2113,3.039 -105.0767,62.3048 -109.9849,61.9584 -2.8713,-0.2113 -8.2725,-0.845 -12.0003,-1.4281 z"
     id="path6654" />
  <path
     style="fill:#63d8b7;fill-opacity:0.5;stroke:none;stroke-width:0.271222;stroke-linecap:round;stroke-linejoin:round;stroke-miterlimit:4;stroke-dasharray:none;stroke-opacity:1"
     d="m 3186.3606,2172.2165 c -2.9153,-4.8587 -15.9819,-28.3607 -29.0369,-52.2294 -13.0552,-23.8653 -25.9964,-47.1523 -28.7579,-51.7419 l -5.0294,-8.3461 62.989,-35.5533 c 34.6492,-19.5588 64.4663,-35.9421 66.2619,-36.4094 2.6081,-0.676 50.362,76.8257 67.4154,109.4106 l 3.7687,7.1935 -64.3493,37.3169 c -35.3945,20.5263 -65.1609,37.7419 -66.1525,38.2544 -0.9997,0.5209 -4.1895,-3.0365 -7.109,-7.8953 z"
     id="path6693" />
  <path
     style="fill:#63d8b7;fill-opacity:0.5;stroke:none;stroke-width:0.271222;stroke-linecap:round;stroke-linejoin:round;stroke-miterlimit:4;stroke-dasharray:none;stroke-opacity:1"
     d="m 2338.2724,2333.0074 c -9.9613,-17.9647 -18.6424,-32.6563 -19.2943,-32.6563 -0.6477,0 -17.9491,9.1416 -38.4403,20.321 -37.2476,20.3121 -37.2578,20.3163 -38.1378,13.3112 -0.4787,-3.8544 -0.4787,-7.3316 0,-7.7258 0.4787,-0.3929 127.9148,-69.9635 283.1819,-154.5927 l 282.2988,-153.8745 3.4916,-13.6244 3.4911,-13.6256 21.2053,38.8953 c 11.6622,21.3912 20.8322,39.2659 20.3784,39.7205 -0.4504,0.4508 -6.3781,-0.6477 -13.1651,-2.4674 l -12.337,-3.301 -188.0531,102.5547 c -103.4309,56.4067 -189.3632,104.1703 -190.9645,106.135 -1.6025,1.9701 -5.8178,13.9454 -9.3693,26.6048 l -6.4558,23.0233 -25.8908,14.1977 c -14.2425,7.8061 -32.1818,17.6968 -39.8646,21.9784 l -13.9704,7.7753 z"
     id="path6732" />
  <path
     style="fill:#63d8b7;fill-opacity:0.5;stroke:none;stroke-width:0.271222;stroke-linecap:round;stroke-linejoin:round;stroke-miterlimit:4;stroke-dasharray:none;stroke-opacity:1"
     d="m 2739.8515,2195.8343 c -17.6774,-32.1197 -31.6736,-58.7892 -31.1045,-59.2582 0.5632,-0.4791 28.4989,-15.8298 62.0636,-34.1337 l 61.0216,-33.2863 14.9033,3.8507 14.8986,3.849 15.8188,28.3497 c 8.6976,15.5843 21.2488,38.2937 27.8918,50.452 l 12.0751,22.1082 -70.176,38.2387 c -38.5941,21.0308 -71.3193,38.238 -72.7135,38.238 -1.3803,0 -17.0014,-26.2795 -34.6788,-58.4081 z"
     id="path6771" />
  <path
     style="fill:#63d8b7;fill-opacity:0.5;stroke:none;stroke-width:0.271222;stroke-linecap:round;stroke-linejoin:round;stroke-miterlimit:4;stroke-dasharray:none;stroke-opacity:1"
     d="m 2829.5664,2357.8461 c -44.2683,-79.6298 -53.3521,-96.3452 -52.6984,-96.9662 2.2168,-2.0986 141.0207,-77.146 142.5857,-77.0911 1.0419,0 13.986,22.1576 28.7777,49.1511 l 26.8934,49.0886 -3.9461,15.1441 -3.9445,15.1492 -28.3709,16.562 c -15.6071,9.112 -43.2923,25.2726 -61.5274,35.9112 l -33.1498,19.3547 z"
     id="path6810" />
  <path
     style="fill:#63d8b7;fill-opacity:0.5;stroke:none;stroke-width:0.271222;stroke-linecap:round;stroke-linejoin:round;stroke-miterlimit:4;stroke-dasharray:none;stroke-opacity:1"
     d="m 2611.7507,2310.5164 c -7.6726,-13.7946 -22.4077,-40.3868 -32.742,-59.0963 l -18.7928,-34.01 68.0039,-36.9911 c 37.4009,-20.3464 69.5887,-37.3871 71.522,-37.8632 3.3268,-0.8167 19.8153,26.65 54.4814,90.7669 l 13.9679,25.8346 -70.1447,38.2249 c -38.5785,21.0236 -70.642,38.2252 -71.2433,38.2252 -0.6054,0 -7.3781,-11.2892 -15.0524,-25.091 z"
     id="path6849" />
  <path
     style="fill:#63d8b7;fill-opacity:0.5;stroke:none;stroke-width:0.271222;stroke-linecap:round;stroke-linejoin:round;stroke-miterlimit:4;stroke-dasharray:none;stroke-opacity:1"
     d="m 2664.2662,2405.6436 c -19.0691,-34.5419 -33.7155,-63.7536 -32.5481,-64.9256 2.8831,-2.873 136.2351,-75.6288 138.5855,-75.6047 3.4083,0 68.1902,120.5224 65.9848,122.7291 -1.7522,1.7533 -135.9931,80.7469 -137.0379,80.6371 -0.2113,0 -15.9186,-28.2978 -34.9843,-62.8359 z"
     id="path6888" />
  <path
     style="fill:#63d8b7;fill-opacity:0.5;stroke:none;stroke-width:0.271222;stroke-linecap:round;stroke-linejoin:round;stroke-miterlimit:4;stroke-dasharray:none;stroke-opacity:1"
     d="m 2465.27,2367.4682 -24.3808,-43.8488 7.0583,-24.3444 7.0574,-24.347 50.245,-27.4613 50.2437,-27.4553 32.8819,59.6655 32.8802,59.6667 -49.307,26.8131 c -27.1177,14.747 -56.7308,30.9397 -65.8061,35.9831 l -16.4969,9.167 z"
     id="path6927" />
  <path
     style="fill:#63d8b7;fill-opacity:0.5;stroke:none;stroke-width:0.271222;stroke-linecap:round;stroke-linejoin:round;stroke-miterlimit:4;stroke-dasharray:none;stroke-opacity:1"
     d="m 2569.1982,2532.2288 c -7.2121,-1.9701 -13.8863,-4.3784 -14.8314,-5.326 -0.9574,-0.9579 -15.39,-26.3024 -32.0956,-56.3476 l -30.371,-54.6238 64.0594,-34.9196 c 35.2352,-19.2051 65.0498,-35.1406 66.251,-35.4122 1.183,-0.2831 17.9351,27.8934 37.1855,62.5988 l 34.9927,63.0962 -32.9859,19.3505 c -18.1404,10.6398 -43.0907,25.2697 -55.443,32.5084 -12.3539,7.2361 -22.7279,13.0552 -23.0545,12.9217 -0.3253,-0.2112 -6.4968,-1.8619 -13.7072,-3.8464 z"
     id="path6966" />
  <path
     style="fill:#63d8b7;fill-opacity:0.5;stroke:none;stroke-width:0.271222;stroke-linecap:round;stroke-linejoin:round;stroke-miterlimit:4;stroke-dasharray:none;stroke-opacity:1"
     d="m 2444.3465,2583.1037 c -10.7243,-37.3253 -13.2399,-44.0794 -16.434,-44.0794 -3.9685,0 -101.4773,12.7324 -113.1987,14.7832 -7.1432,1.2532 -7.5923,0.3507 -40.0107,-80.6636 -32.3707,-80.8936 -32.786,-82.2118 -32.7708,-103.6325 v -21.6979 l 36.2082,-19.6619 c 19.9154,-10.816 37.3025,-19.6323 38.6393,-19.5985 1.3377,0 9.685,13.5905 18.5588,30.1242 8.8682,16.5324 17.4915,30.5806 19.1548,31.2185 2.7476,1.0563 12.8217,-4.0488 65.548,-33.2055 l 16.7563,-9.2642 55.7941,100.8271 c 30.6862,55.4557 55.4924,101.0688 55.1181,101.3603 -2.8012,2.2097 -99.7142,58.2332 -100.7257,58.2332 -0.7183,0 -1.9038,-2.121 -2.6546,-4.743 z"
     id="path7005" />
  <path
     style="fill:#63d8b7;fill-opacity:0.5;stroke:none;stroke-width:0.271222;stroke-linecap:round;stroke-linejoin:round;stroke-miterlimit:4;stroke-dasharray:none;stroke-opacity:1"
     d="m 2474.2625,2688.8791 c -2.7775,-4.5643 -26.5318,-93.4709 -25.3065,-94.7017 0.7322,-0.7326 24.3077,-14.7342 52.3955,-31.1213 l 51.065,-29.7947 16.3013,4.1346 16.3043,4.1362 193.2684,-112.6904 193.2642,-112.688 3.0141,-11.9694 c 1.6435,-6.5851 3.7839,-11.9677 4.7261,-11.9665 1.5366,0 43.8555,74.0558 42.8305,74.9684 -0.2408,0.2113 -6.5361,-0.845 -13.9962,-2.3731 l -13.5593,-2.7463 -191.2112,111.3993 -191.2163,111.3993 -5.6771,17.0576 -5.6768,17.0606 -61.63,35.9644 c -33.8959,19.7802 -62.0894,35.962 -62.6458,35.962 -0.5632,0 -1.559,-0.9156 -2.2502,-2.0352 z"
     id="path7044" />
  <path
     style="fill:#ebdc94;fill-opacity:0.0627451;stroke:none;stroke-width:0.271222;stroke-linecap:round;stroke-linejoin:round;stroke-miterlimit:4;stroke-dasharray:none;stroke-opacity:1"
     d="m 4088.5485,4524.1568 -129.2386,-13.1131 -22.6472,-14.5775 c -12.4566,-8.0233 -56.3712,-34.1803 -97.5903,-58.1289 l -74.9473,-43.5428 -21.3392,1.7322 -21.3405,1.7306 -13.8593,-37.2374 c -7.6219,-20.4774 -15.5581,-39.3885 -17.6326,-42.005 -2.077,-2.6296 -12.4734,-15.1652 -23.1234,-27.8626 -10.647,-12.6961 -24.2274,-32.8506 -30.1792,-44.7808 l -10.8244,-21.6996 2.4885,-29.4664 2.4843,-29.4639 -14.1774,-19.3517 c -11.9753,-16.3466 -17.8253,-29.2176 -37.6321,-82.7889 l -23.4517,-63.4312 -34.7717,-14.4174 c -19.1211,-7.9371 -35.7279,-15.4014 -36.8982,-16.5831 -1.1691,-1.183 -14.5002,-28.4005 -29.6147,-60.4682 -32.2157,-68.3521 -40.9585,-82.9803 -52.5278,-87.9024 -4.6534,-1.9689 -46.1835,-38.85 -92.2883,-81.9366 l -83.8266,-78.3302 -39.5139,-3.0559 c -33.422,-2.5815 -41.196,-2.4395 -50.4276,0.9295 -8.7402,3.1827 -34.9619,4.2486 -131.6087,5.3514 l -120.6914,1.3663 -150.8202,-141.9769 c -82.9549,-78.0839 -151.0717,-143.0923 -151.3746,-144.4629 -0.2957,-1.3659 15.799,-8.4736 35.7858,-15.7956 l 36.332,-13.3129 10.0204,-20.8153 10.0217,-20.8196 -7.929,-28.8736 -7.9274,-28.8749 -53.0052,-64.9522 -53.0127,-64.9484 -32.2127,-70.3349 -32.2059,-70.3293 15.5974,-49.9606 c 8.5798,-27.4807 15.0748,-50.8056 14.4356,-51.8395 -0.6198,-1.0419 -21.3109,-26.0683 -45.9401,-55.6276 -24.6258,-29.5611 -44.7706,-54.4108 -44.758,-55.225 0,-2.0774 52.1293,-35.6662 53.3854,-34.4126 0.5637,0.5632 17.8355,53.9798 38.3732,118.6929 l 37.3431,117.6578 159.8782,189.359 159.8757,189.356 339.0276,146.6806 c 186.4632,80.6777 339.3985,146.9722 339.8535,147.3313 0.4504,0.3507 51.2505,140.2379 112.8806,310.8331 l 112.0597,310.1729 140.7094,86.0379 c 77.388,47.3183 143.3783,86.0674 146.6328,86.1097 3.252,0 86.5775,-12.7359 185.1606,-28.4005 98.5892,-15.6578 180.7257,-28.4752 182.5382,-28.4752 1.7973,0 89.9912,-86.6704 195.9586,-192.6009 l 192.6697,-192.5936 214.2062,31.175 c 117.8163,17.145 218.4849,32.2536 223.7028,33.5702 20.9346,5.2744 723.3539,287.0042 737.1676,295.6625 2.6541,1.6663 -3.2381,16.5366 -24.2182,61.1247 l -27.7257,58.9287 -62.5697,-62.2144 -62.5744,-62.2174 -47.7753,-2.794 -47.7772,-2.7885 -62.0678,-20.2534 -62.0704,-20.2576 -120.6985,-5.9712 c -66.379,-3.2798 -237.634,-11.8553 -380.5678,-19.0534 l -259.8671,-13.0874 -127.434,40.4092 c -70.0864,22.2307 -127.8836,40.4134 -128.4328,40.4134 -0.5353,0 -3.6069,7.8221 -6.7812,17.3774 l -5.7869,17.3761 -117.1679,51.9916 c -75.7234,33.5972 -134.2439,61.5046 -165.4649,78.9032 -41.0108,22.8627 -50.0113,26.8739 -59.6684,26.5879 -6.2501,-0.2113 -69.5237,-6.2332 -140.6025,-13.4495 z"
     id="path7083" />
  <path
     style="fill:#63d8b7;fill-opacity:0.5;stroke:none;stroke-width:0.271222;stroke-linecap:round;stroke-linejoin:round;stroke-miterlimit:4;stroke-dasharray:none;stroke-opacity:1"
     d="m 2550.187,2932.9307 c -1.3381,-2.2464 -64.3522,-200.8184 -70.2956,-221.545 l -3.8489,-13.4271 62.527,-36.4068 c 58.8559,-34.266 62.7429,-36.1039 66.1496,-31.3229 6.746,9.467 136.2575,227.1981 136.2575,229.0656 0,1.014 -13.1115,10.0639 -29.1344,20.0844 l -29.1326,18.2224 -26.064,-5.9083 -26.064,-5.912 -29.5607,18.252 c -16.2578,10.0344 -34.0763,21.0925 -39.6039,24.5671 -5.5208,3.473 -10.5722,5.4232 -11.23,4.3306 z"
     id="path7122" />
  <path
     style="fill:#63d8b7;fill-opacity:0.5;stroke:none;stroke-width:0.271222;stroke-linecap:round;stroke-linejoin:round;stroke-miterlimit:4;stroke-dasharray:none;stroke-opacity:1"
     d="m 2581.1634,2990.4879 c -11.1781,-13.1245 -22.0376,-29.0443 -24.8278,-36.376 l -4.9584,-13.0523 40.6048,-24.96 40.5997,-24.9643 25.4442,6.1293 25.4455,6.1389 150.1269,-93.5922 c 339.6673,-211.7541 313.735,-194.8528 315.5614,-205.6574 0.8873,-5.2994 2.5042,-11.0581 3.5744,-12.7861 1.1407,-1.8831 11.0158,11.6749 24.4185,33.5926 12.3569,20.2056 21.9421,37.2661 21.3025,37.9096 -0.6477,0.6477 -6.5319,-0.2112 -13.0946,-1.8391 l -11.9272,-2.9998 -283.1507,176.7258 c -155.7365,97.2021 -284.5229,177.2557 -286.2002,177.9008 -1.666,0.6477 -11.9876,-9.3317 -22.919,-22.1673 z"
     id="path7161" />
  <path
     style="fill:#63d8b7;fill-opacity:0.5;stroke:none;stroke-width:0.271222;stroke-linecap:round;stroke-linejoin:round;stroke-miterlimit:4;stroke-dasharray:none;stroke-opacity:1"
     d="m 2706.6949,2789.5892 c -22.1685,-36.8674 -39.0854,-67.4636 -37.5928,-67.9972 1.4944,-0.5353 30.7652,-17.3352 65.0566,-37.3308 34.2901,-20.0024 62.5275,-36.1449 62.7442,-35.8775 3.0505,3.7295 76.9318,127.77 76.832,128.9868 -0.2112,1.3798 -118.5399,75.8074 -124.8141,78.4329 -1.0562,0.4364 -20.0573,-29.3553 -42.2259,-66.2142 z"
     id="path7200" />
  <path
     style="fill:#63d8b7;fill-opacity:0.5;stroke:none;stroke-width:0.271222;stroke-linecap:round;stroke-linejoin:round;stroke-miterlimit:4;stroke-dasharray:none;stroke-opacity:1"
     d="m 2634.6942,2669.1441 -28.733,-48.8832 4.5237,-15.2409 4.5233,-15.2425 54.8688,-31.9549 54.8701,-31.9609 26.6893,45.2316 c 41.2288,69.873 41.9526,71.2208 39.4024,73.4499 -2.6195,2.29 -125.2742,73.4926 -126.5967,73.4926 -0.4508,0 -13.7426,-21.9995 -29.5479,-48.8917 z"
     id="path7239" />
  <path
     style="fill:#63d8b7;fill-opacity:0.5;stroke:none;stroke-width:0.271222;stroke-linecap:round;stroke-linejoin:round;stroke-miterlimit:4;stroke-dasharray:none;stroke-opacity:1"
     d="m 2771.3809,2593.9476 c -14.7663,-24.985 -30.158,-51.1407 -34.1996,-58.1204 l -7.349,-12.6931 32.0187,-18.8114 c 71.1376,-41.7937 107.6349,-62.7962 108.1009,-62.203 4.1701,5.3108 66.3029,113.3356 66.3029,115.2833 0,2.1658 -133.4061,81.9747 -137.0252,81.9747 -0.5492,0 -13.0764,-20.4435 -27.8487,-45.4301 z"
     id="path7278" />
  <path
     style="fill:#63d8b7;fill-opacity:0.5;stroke:none;stroke-width:0.271222;stroke-linecap:round;stroke-linejoin:round;stroke-miterlimit:4;stroke-dasharray:none;stroke-opacity:1"
     d="m 2841.4767,2711.4955 c -20.9645,-34.904 -38.0926,-64.4959 -38.0601,-65.7549 0,-2.7323 132.9806,-80.1808 136.9069,-79.7807 3.0492,0.3084 74.4276,116.4423 74.5248,121.2448 0,1.6871 -24.0416,18.1054 -53.5054,36.4715 -29.4622,18.369 -59.9063,37.4251 -67.6562,42.343 l -14.0917,8.9472 z"
     id="path7317" />
  <path
     style="fill:#63d8b7;fill-opacity:0.5;stroke:none;stroke-width:0.271222;stroke-linecap:round;stroke-linejoin:round;stroke-miterlimit:4;stroke-dasharray:none;stroke-opacity:1"
     d="m 2983.961,2623.0735 c -20.7465,-34.3125 -37.2223,-62.7835 -36.6126,-63.2707 4.0729,-3.238 138.6772,-80.4457 140.2544,-80.4457 1.0845,0 15.6637,22.8886 32.3875,50.8551 l 30.4129,50.8521 -3.8376,14.5243 c -2.0998,7.9865 -4.2178,14.8394 -4.6855,15.2336 -1.4505,1.2113 -119.2266,74.6642 -119.7251,74.6503 -0.2535,0 -17.4438,-28.0895 -38.194,-62.399 z"
     id="path7356" />
  <path
     style="fill:#63d8b7;fill-opacity:0.5;stroke:none;stroke-width:0.271222;stroke-linecap:round;stroke-linejoin:round;stroke-miterlimit:4;stroke-dasharray:none;stroke-opacity:1"
     d="m 2908.6377,2497.0109 -34.307,-58.2881 24.8569,-14.5539 c 13.6776,-8.0034 41.1853,-24.0897 61.137,-35.7507 l 36.2691,-21.2052 14.9312,3.8603 14.9282,3.8659 29.3878,48.7789 c 16.1674,26.8305 28.5187,49.5187 27.4553,50.4102 -2.4306,2.0335 -138.4815,81.1707 -139.5615,81.1707 -0.4368,0 -16.2324,-26.2305 -35.097,-58.2881 z"
     id="path7395" />
  <path
     style="fill:#63d8b7;fill-opacity:0.5;stroke:none;stroke-width:0.271222;stroke-linecap:round;stroke-linejoin:round;stroke-miterlimit:4;stroke-dasharray:none;stroke-opacity:1"
     d="m 3126.0815,2382.8497 c -15.6481,-26.2301 -28.1005,-49.1114 -27.6737,-50.8576 0.4364,-1.731 3.2938,-9.5244 6.3755,-17.2984 4.7092,-11.8909 7.8188,-15.3904 19.5685,-22.0659 7.6785,-4.3632 31.7412,-18.2702 53.4671,-30.9101 l 39.505,-22.984 24.9039,43.6937 c 13.6999,24.0275 28.5719,50.0603 33.0547,57.8457 l 8.1529,14.1622 -63.999,38.0516 c -35.1968,20.9281 -64.2011,38.0533 -64.4504,38.0533 -0.2535,0 -13.258,-21.46 -28.9045,-47.6905 z"
     id="path7434" />
  <path
     style="fill:#63d8b7;fill-opacity:0.5;stroke:none;stroke-width:0.271222;stroke-linecap:round;stroke-linejoin:round;stroke-miterlimit:4;stroke-dasharray:none;stroke-opacity:1"
     d="m 3071.0044,2287.1619 c -11.4599,-20.6827 -20.8351,-38.167 -20.8351,-38.8628 0,-0.69 7.1136,-0.2113 15.8044,1.2814 l 15.8057,2.5435 147.1945,-85.9154 c 80.9637,-47.2524 147.5184,-85.5267 147.9071,-85.0547 3.0099,3.6618 41.9699,76.5303 41.2855,77.2131 -0.4787,0.4791 -18.2254,10.4949 -39.4277,22.2446 l -38.5532,21.3591 -20.9222,-4.9661 c -11.5118,-2.7264 -23.5079,-5.0036 -26.661,-5.0531 -3.1506,0 -46.7031,23.753 -96.7736,52.8987 l -91.0442,52.9815 -4.4701,13.4634 c -2.4632,7.4051 -5.3729,13.4638 -6.4756,13.4638 -1.0985,0 -11.375,-16.9199 -22.8345,-37.5983 z"
     id="path7473" />
  <path
     style="fill:#63d8b7;fill-opacity:0.5;stroke:none;stroke-width:0.271222;stroke-linecap:round;stroke-linejoin:round;stroke-miterlimit:4;stroke-dasharray:none;stroke-opacity:1"
     d="m 3400.0932,2230.9681 c -13.5521,-21.6307 -23.9727,-40.4079 -23.1572,-41.7273 0.8171,-1.3242 11.8401,-8.0474 24.5007,-14.951 12.6598,-6.9024 23.0123,-14.0072 22.9997,-15.7973 0,-1.7745 -9.6571,-20.6138 -21.428,-41.8402 l -21.4135,-38.5924 8.5501,-5.1292 c 28.9763,-17.3901 113.5933,-63.0188 115.5326,-62.2976 2.4843,0.9295 117.038,141.2443 116.0198,142.1163 -0.3253,0.2831 -39.0517,23.374 -86.0392,51.3055 -46.9879,27.9357 -91.1729,54.2629 -98.178,58.5133 l -12.7468,7.7304 z"
     id="path7512" />
  <path
     style="fill:#63d8b7;fill-opacity:0.5;stroke:none;stroke-width:0.271222;stroke-linecap:round;stroke-linejoin:round;stroke-miterlimit:4;stroke-dasharray:none;stroke-opacity:1"
     d="m 3254.6831,2293.646 -32.8046,-57.6235 33.331,-19.3699 c 18.331,-10.6487 36.1423,-19.3421 39.5857,-19.3184 3.4404,0 15.3591,2.407 26.4836,5.2998 l 20.2305,5.2517 13.9383,-7.9785 13.9442,-7.9751 24.7991,39.8937 c 19.4704,31.3115 24.077,40.5655 21.4351,43.0401 -2.5367,2.363 -119.3466,72.163 -126.7783,75.7555 -0.7322,0.3676 -16.1214,-25.2752 -34.1646,-56.9754 z"
     id="path7551" />
  <path
     style="fill:#63d8b7;fill-opacity:0.5;stroke:none;stroke-width:0.271222;stroke-linecap:round;stroke-linejoin:round;stroke-miterlimit:4;stroke-dasharray:none;stroke-opacity:1"
     d="m 3534.2399,2401.8216 c -7.4233,-12.4709 -15.3634,-22.7039 -17.6423,-22.7419 -2.2786,0 -6.9557,1.9042 -10.399,4.3108 -3.8984,2.7251 -7.2176,3.4167 -8.802,1.8396 -1.3803,-1.4087 -17.6875,-26.8106 -36.2027,-56.4689 l -33.6577,-53.9262 92.7075,-55.2828 c 50.9916,-30.4044 95.7639,-56.8698 99.4946,-58.7993 6.6404,-3.4434 7.4757,-2.6491 40.6812,38.8869 18.6492,23.3232 46.6947,54.8362 62.323,70.0365 15.6325,15.1944 27.8385,28.1089 27.1245,28.6932 -0.7183,0.5915 -40.3572,25.3006 -88.0883,54.928 -47.737,29.6227 -92.9221,57.7625 -100.4185,62.53 l -13.6185,8.668 z"
     id="path7590" />
  <path
     style="fill:#63d8b7;fill-opacity:0.5;stroke:none;stroke-width:0.271222;stroke-linecap:round;stroke-linejoin:round;stroke-miterlimit:4;stroke-dasharray:none;stroke-opacity:1"
     d="m 3324.1657,2415.2867 c -25.8908,-45.7272 -32.3956,-59.1711 -29.5184,-61.0301 23.1471,-14.9878 127.8413,-75.7602 128.8203,-74.7842 0.7182,0.7182 16.8391,26.1472 35.839,56.5178 l 34.5338,55.2182 -66.117,41.3628 c -36.3633,22.7516 -67.0664,41.361 -68.2337,41.361 -1.1691,0 -17.0606,-26.3876 -35.324,-58.6455 z"
     id="path7629" />
  <path
     style="fill:#63d8b7;fill-opacity:0.5;stroke:none;stroke-width:0.271222;stroke-linecap:round;stroke-linejoin:round;stroke-miterlimit:4;stroke-dasharray:none;stroke-opacity:1"
     d="m 3233.5847,2539.2338 c -7.8471,-1.1264 -14.6637,-3.8599 -16.7703,-6.7431 -8.232,-11.2609 -58.9275,-96.6481 -57.9105,-97.5383 7.8192,-6.8572 126.2541,-74.2823 127.7835,-72.7473 1.6237,1.6224 52.1855,89.2544 64.7198,112.1665 2.0563,3.7704 -5.577,9.4995 -46.5227,34.8876 -26.9428,16.7081 -51.0338,30.717 -53.5324,31.1268 -2.5012,0.4098 -10.4975,-0.2113 -17.7674,-1.1547 z"
     id="path7668" />
  <path
     style="fill:#63d8b7;fill-opacity:0.5;stroke:none;stroke-width:0.271222;stroke-linecap:round;stroke-linejoin:round;stroke-miterlimit:4;stroke-dasharray:none;stroke-opacity:1"
     d="m 3865.7461,3222.6838 c -19.0873,-10.0767 -35.883,-19.5026 -37.325,-20.9476 -1.6874,-1.6672 2.5562,-4.7599 11.8495,-8.6148 l 14.4681,-5.9893 51.0996,-104.3296 51.0947,-104.3237 -3.4633,-15.6283 c -1.9042,-8.5962 -4.5051,-17.6208 -5.787,-20.0519 -1.2814,-2.4348 -20.5854,-17.2899 -42.9188,-33.0251 -22.3261,-15.7326 -66.6016,-49.3467 -98.396,-74.698 -104.7534,-83.5312 -173.6264,-164.0246 -257.4026,-300.8213 -36.6544,-59.8543 -34.566,-57.8233 -63.9551,-62.0736 -11.0387,-1.6013 -13.7439,-0.2113 -107.6023,58.3725 -90.5882,56.4697 -96.4749,60.6229 -99.5609,70.1815 -7.3498,22.7922 -6.7414,23.1163 -30.2522,-16.0001 -11.9766,-19.9166 -22.2797,-37.5053 -22.8995,-39.0787 -0.7605,-1.9266 3.9461,-2.2603 14.5665,-0.9717 l 15.6815,1.8831 130.081,-81.0638 c 102.1166,-63.6311 130.7578,-80.3312 133.2142,-77.6623 1.7095,1.8615 26.6767,41.8402 55.4671,88.8306 28.7879,46.9888 70.4109,110.5201 92.4937,141.1767 37.8209,52.5041 43.185,58.6346 92.4092,105.5181 65.0705,61.9905 111.9976,99.8494 205.0971,165.4679 69.1912,48.7776 75.9402,52.8379 130.9649,78.8102 31.9144,15.0592 58.8627,28.2285 59.8978,29.2581 1.0423,1.014 -2.8417,11.9133 -8.6203,24.181 l -10.4949,22.3109 -25.2836,-11.8143 c -13.9062,-6.4968 -41.0755,-19.3113 -60.3655,-28.474 -19.2986,-9.1611 -36.0845,-16.3254 -37.2996,-15.9181 -1.2113,0.4098 -27.3134,51.3718 -57.9797,113.2427 l -55.7573,112.5058 2.8785,11.4273 c 3.4024,13.5188 3.5883,17.2423 0.845,16.9199 -1.1268,-0.2112 -17.6508,-8.488 -36.7436,-18.5761 z"
     id="path7707" />
  <path
     style="fill:#63d8b7;fill-opacity:0.5;stroke:none;stroke-width:0.271222;stroke-linecap:round;stroke-linejoin:round;stroke-miterlimit:4;stroke-dasharray:none;stroke-opacity:1"
     d="m 3718.133,2676.6731 c -19.8871,-20.4321 -83.1594,-110.9751 -125.2488,-179.2427 -22.5248,-36.5365 -40.9513,-67.0845 -40.9513,-67.8873 0,-1.7745 199.9228,-126.4783 202.7747,-126.4783 1.0985,0 44.5762,42.5643 96.5877,94.588 l 94.5568,94.5881 -90.1869,95.9438 c -59.8302,63.6454 -92.5837,96.5243 -97.2903,97.6579 -3.9014,0.9295 -12.0273,1.862 -18.0594,2.0352 -9.5244,0.2831 -12.4325,-1.197 -22.1825,-11.2089 z"
     id="path7746" />
  <path
     style="fill:#63d8b7;fill-opacity:0.5;stroke:none;stroke-width:0.271222;stroke-linecap:round;stroke-linejoin:round;stroke-miterlimit:4;stroke-dasharray:none;stroke-opacity:1"
     d="m 3424.5982,2602.3697 c -28.3553,-46.085 -40.2558,-67.7128 -38.3149,-69.6479 1.5363,-1.5366 22.6401,-15.1985 46.8832,-30.3384 l 44.0752,-27.5398 16.9845,4.2896 16.9874,4.2926 34.0844,55.2998 c 18.748,30.4187 33.0931,56.2009 31.8877,57.2981 -3.418,3.0982 -109.0911,73.1868 -110.346,73.1868 -0.6054,0 -19.6221,-30.0778 -42.2415,-66.8408 z"
     id="path7785" />
  <path
     style="fill:#63d8b7;fill-opacity:0.5;stroke:none;stroke-width:0.271222;stroke-linecap:round;stroke-linejoin:round;stroke-miterlimit:4;stroke-dasharray:none;stroke-opacity:1"
     d="m 3513.1052,2735.3697 c -22.104,-30.6849 -40.694,-57.2094 -41.315,-58.9387 -0.8873,-2.4843 54.9123,-41.4599 104.194,-72.7744 l 7.1347,-4.5359 35.2648,49.0518 c 19.3869,26.988 36.2066,50.6451 37.3701,52.5903 1.4716,2.4475 -13.3974,16.766 -48.8173,46.9959 -28.0172,23.9093 -51.545,43.4554 -52.2941,43.4372 -0.7322,0 -19.4363,-25.1442 -41.5372,-55.8262 z"
     id="path7824" />
  <path
     style="fill:#63d8b7;fill-opacity:0.5;stroke:none;stroke-width:0.271222;stroke-linecap:round;stroke-linejoin:round;stroke-miterlimit:4;stroke-dasharray:none;stroke-opacity:1"
     d="m 3608.9113,2846.8869 c -49.4904,-49.5449 -50.0325,-50.2141 -44.7204,-55.2178 2.952,-2.7813 26.2668,-22.8276 51.807,-44.5441 l 46.4399,-39.4911 43.7414,44.0384 c 24.0597,24.2152 43.7457,44.9287 43.7457,46.0356 0,2.5942 -86.8098,99.3315 -89.1378,99.3315 -0.9718,0 -24.3191,-22.5645 -51.8758,-50.1525 z"
     id="path7863" />
  <path
     style="fill:#63d8b7;fill-opacity:0.5;stroke:none;stroke-width:0.271222;stroke-linecap:round;stroke-linejoin:round;stroke-miterlimit:4;stroke-dasharray:none;stroke-opacity:1"
     d="m 3722.7678,2949.6419 c -30.5623,-24.4446 -55.5684,-45.5371 -55.5684,-46.8794 0,-1.3376 18.3069,-22.8234 40.688,-47.7425 22.3714,-24.919 42.1389,-47.1564 43.9159,-49.4156 2.7619,-3.4966 10.6909,1.8185 53.7014,36 27.7498,22.0575 51.0478,41.0573 51.7588,42.2132 0.7183,1.1408 -16.7504,26.4388 -38.8108,56.1816 l -40.1177,54.0812 z"
     id="path7902" />
  <path
     style="fill:#63d8b7;fill-opacity:0.5;stroke:none;stroke-width:0.271222;stroke-linecap:round;stroke-linejoin:round;stroke-miterlimit:4;stroke-dasharray:none;stroke-opacity:1"
     d="m 3841.5368,3038.7894 -58.9121,-41.7346 40.6939,-54.1252 c 34.2787,-45.5945 41.4291,-53.7192 45.3554,-51.5462 2.5574,1.4081 20.5081,13.9437 39.8743,27.8427 l 35.2263,25.2769 3.9521,17.1898 3.9546,17.1903 -25.6162,50.8183 -25.6136,50.8183 z"
     id="path7941" />
  <path
     style="fill:#63d8b7;fill-opacity:0.5;stroke:none;stroke-width:0.271222;stroke-linecap:round;stroke-linejoin:round;stroke-miterlimit:4;stroke-dasharray:none;stroke-opacity:1"
     d="m 3760.5,3155.6782 c -31.9186,-22.9531 -58.419,-42.8512 -58.8783,-44.2074 -1.1268,-3.3141 74.9726,-107.2981 78.5174,-107.2981 1.5155,0 28.7807,18.2701 60.5599,40.5938 l 57.7908,40.5993 -24.4657,48.9043 -24.464,48.9116 -15.507,7.1174 -15.5087,7.1166 z"
     id="path7980" />
  <path
     style="fill:#63d8b7;fill-opacity:0.5;stroke:none;stroke-width:0.271222;stroke-linecap:round;stroke-linejoin:round;stroke-miterlimit:4;stroke-dasharray:none;stroke-opacity:1"
     d="m 3634.6512,3060.7889 c -32.8126,-26.0965 -60.7441,-48.5199 -62.061,-49.8212 -3.546,-3.5012 87.5306,-103.9434 91.4827,-100.8917 55.4248,42.8077 109.847,88.5112 108.3471,90.9841 -2.0774,3.4223 -73.9193,102.3337 -76.4949,105.3263 -0.8872,1.014 -28.4553,-19.4996 -61.2739,-45.5975 z"
     id="path8019" />
  <path
     style="fill:#63d8b7;fill-opacity:0.5;stroke:none;stroke-width:0.271222;stroke-linecap:round;stroke-linejoin:round;stroke-miterlimit:4;stroke-dasharray:none;stroke-opacity:1"
     d="m 3508.2139,2949.0166 -57.4473,-56.4236 13.2876,-12.1368 c 7.3135,-6.67 30.472,-27.5529 51.4719,-46.4091 l 38.1881,-34.2732 51.7537,52.0242 51.7588,52.0249 -45.7821,50.8086 -45.7821,50.8086 z"
     id="path8058" />
  <path
     style="fill:#63d8b7;fill-opacity:0.5;stroke:none;stroke-width:0.271222;stroke-linecap:round;stroke-linejoin:round;stroke-miterlimit:4;stroke-dasharray:none;stroke-opacity:1"
     d="m 3428.6022,2862.4282 c -20.4756,-25.6627 -74.6629,-104.393 -74.6629,-108.4744 0,-1.3659 24.9359,-19.1236 55.4096,-39.4374 l 55.4109,-36.932 42.1963,58.5049 c 23.2138,32.183 41.536,59.5767 40.729,60.8894 -1.6883,2.7192 -98.0284,89.2303 -99.3297,89.1855 -0.4787,0 -9.3555,-10.7006 -19.7532,-23.736 z"
     id="path8097" />
  <path
     style="fill:#63d8b7;fill-opacity:0.5;stroke:none;stroke-width:0.271222;stroke-linecap:round;stroke-linejoin:round;stroke-miterlimit:4;stroke-dasharray:none;stroke-opacity:1"
     d="m 3339.8827,2735.085 c -5.108,-7.1428 -22.0756,-34.3391 -37.7009,-60.4484 l -28.4216,-47.4636 5.58,-15.5282 c 3.0715,-8.5442 6.7697,-16.6536 8.2201,-18.0238 1.4492,-1.366 22.3405,-14.6848 46.4091,-29.5974 l 43.7735,-27.1093 42.0515,68.145 42.0459,68.1451 -49.2031,32.7957 c -27.0637,18.0352 -52.4153,34.8773 -56.3387,37.4309 l -7.1318,4.6361 z"
     id="path8136" />
  <path
     style="fill:#63d8b7;fill-opacity:0.5;stroke:none;stroke-width:0.271222;stroke-linecap:round;stroke-linejoin:round;stroke-miterlimit:4;stroke-dasharray:none;stroke-opacity:1"
     d="m 3090.4576,2799.1461 c -20.3869,-34.0129 -34.6788,-60.5586 -33.2664,-61.8075 1.3664,-1.183 28.2441,-18.2296 59.75,-37.8476 l 57.2767,-35.6619 15.1044,3.0335 15.1027,3.0294 29.4778,49.1718 29.4723,49.1735 -68.5928,45.2624 -68.5884,45.2696 z"
     id="path8175" />
  <path
     style="fill:#63d8b7;fill-opacity:0.5;stroke:none;stroke-width:0.271222;stroke-linecap:round;stroke-linejoin:round;stroke-miterlimit:4;stroke-dasharray:none;stroke-opacity:1"
     d="m 3171.4856,2924.8454 -42.1567,-61.7091 68.2292,-45.0892 c 56.405,-37.273 68.704,-44.3862 70.9462,-41.0248 1.4927,2.2308 16.1902,23.7179 32.658,47.7425 l 29.951,43.6798 -2.5308,15.6958 -2.5295,15.6972 -55.3065,43.3514 c -30.42,23.8472 -55.7138,43.354 -56.2081,43.354 -0.4931,0 -19.8689,-27.7625 -43.0528,-61.6976 z"
     id="path8214" />
  <path
     style="fill:#63d8b7;fill-opacity:0.5;stroke:none;stroke-width:0.271222;stroke-linecap:round;stroke-linejoin:round;stroke-miterlimit:4;stroke-dasharray:none;stroke-opacity:1"
     d="m 2954.8,2898.9558 c -17.3804,-28.6497 -34.1143,-56.3995 -37.1859,-61.6579 l -5.5922,-9.5642 62.6931,-39.2574 c 34.4789,-21.5898 65.5031,-40.7822 68.9351,-42.6581 6.0798,-3.3112 7.1783,-1.8396 42.0417,56.3319 19.6914,32.8494 35.318,60.12 34.724,60.5992 -0.5915,0.4787 -28.5441,18.9305 -62.1092,41.0006 -33.5647,22.0685 -63.4747,41.7388 -66.4702,43.7089 -5.1364,3.3842 -7.2222,0.6481 -37.0364,-48.503 z"
     id="path8253" />
  <path
     style="fill:#63d8b7;fill-opacity:0.5;stroke:none;stroke-width:0.271222;stroke-linecap:round;stroke-linejoin:round;stroke-miterlimit:4;stroke-dasharray:none;stroke-opacity:1"
     d="m 3035.5186,3022.9427 c -25.0698,-36.7178 -44.5386,-67.7209 -43.2669,-68.9026 1.2814,-1.1691 31.5468,-21.3139 67.2662,-44.7343 l 64.9552,-42.5808 5.5643,7.5894 c 3.0618,4.1743 22.2586,32.1366 42.6608,62.1455 l 37.0968,54.5604 -62.1677,48.6128 c -34.187,26.7299 -63.1451,48.934 -64.3467,49.3353 -1.197,0.4099 -22.695,-29.3075 -47.762,-66.0257 z"
     id="path8292" />
  <path
     style="fill:#63d8b7;fill-opacity:0.5;stroke:none;stroke-width:0.271222;stroke-linecap:round;stroke-linejoin:round;stroke-miterlimit:4;stroke-dasharray:none;stroke-opacity:1"
     d="m 2818.8771,2975.5327 c -20.4688,-33.8199 -37.218,-62.6665 -37.218,-64.1017 0,-2.7336 124.3532,-80.8509 125.9561,-79.1203 5.119,5.5026 72.2729,119.6169 71.591,121.6521 -0.4927,1.4927 -28.403,20.7895 -62.0045,42.8863 l -61.1011,40.17 z"
     id="path8331" />
  <path
     style="fill:#63d8b7;fill-opacity:0.5;stroke:none;stroke-width:0.271222;stroke-linecap:round;stroke-linejoin:round;stroke-miterlimit:4;stroke-dasharray:none;stroke-opacity:1"
     d="m 2911.4443,3117.3224 c -26.1329,-38.366 -48.3682,-71.225 -49.4101,-73.0236 -2.0339,-3.5097 119.7746,-85.5381 123.5517,-83.2101 1.6241,1.014 66.6692,95.1879 87.0561,126.0757 l 4.8478,7.34 -56.3801,44.0385 c -31.0043,24.2219 -57.6738,45.0529 -59.2624,46.2836 -1.8408,1.428 -19.931,-22.7673 -50.403,-67.5041 z"
     id="path8370" />
  <path
     style="fill:#63d8b7;fill-opacity:0.5;stroke:none;stroke-width:0.271222;stroke-linecap:round;stroke-linejoin:round;stroke-miterlimit:4;stroke-dasharray:none;stroke-opacity:1"
     d="m 2654.6569,3077.4469 c -48.4705,-57.3743 -49.1351,-58.3334 -43.1597,-62.1781 31.3314,-20.1575 163.1243,-101.741 163.5527,-101.2449 0.3085,0.3506 17.6998,28.9116 38.6516,63.4552 l 38.0939,62.8114 -72.6219,47.7129 c -39.9431,26.2432 -73.2222,47.7172 -73.9586,47.7172 -0.7326,0 -23.48,-26.2259 -50.558,-58.2737 z"
     id="path8409" />
  <path
     style="fill:#63d8b7;fill-opacity:0.5;stroke:none;stroke-width:0.271222;stroke-linecap:round;stroke-linejoin:round;stroke-miterlimit:4;stroke-dasharray:none;stroke-opacity:1"
     d="m 2792.4836,3240.8699 c -14.1568,-16.7974 -38.8785,-46.0682 -54.9377,-65.0553 l -29.1948,-34.5098 72.0967,-47.544 c 39.6546,-26.1514 72.9294,-47.5282 73.9476,-47.5046 1.014,0 24.0208,32.5579 51.1225,72.3024 l 49.2737,72.2632 -15.3706,12.0074 c -14.4596,11.2947 -16.1733,11.9314 -28.9315,10.7218 l -13.558,-1.2819 -36.3253,28.4047 c -19.9775,15.6241 -37.6857,28.9303 -39.3504,29.5708 -1.6659,0.6198 -14.613,-12.5791 -28.7722,-29.3747 z"
     id="path8448" />
  <path
     style="fill:#63d8b7;fill-opacity:0.5;stroke:none;stroke-width:0.271222;stroke-linecap:round;stroke-linejoin:round;stroke-miterlimit:4;stroke-dasharray:none;stroke-opacity:1"
     d="m 2852.3476,3311.9483 c -15.2257,-17.9605 -27.2935,-33.762 -26.8106,-35.1098 0.4791,-1.338 17.2169,-15.2408 37.1901,-30.8665 l 36.3156,-28.4174 13.8622,1.2819 13.8593,1.2814 202.3775,-158.726 202.3785,-158.7248 1.7956,-13.654 1.818,-13.648 27.029,33.8816 c 14.8636,18.6364 27.0273,34.5406 27.0273,35.3476 0,0.8027 -5.7954,0.6903 -12.8837,-0.2409 l -12.8833,-1.7098 -197.9916,154.9548 c -108.8935,85.2238 -200.7365,158.0247 -204.0954,161.782 -4.0433,4.5225 -6.0984,10.2794 -6.0984,17.0563 0,10.7104 -0.3929,11.067 -72.1854,65.872 -1.9701,1.5155 -12.6002,-8.9963 -30.7119,-30.3549 z"
     id="path8487" />
  <path
     style="fill:#63d8b7;fill-opacity:0.5;stroke:none;stroke-width:0.271222;stroke-linecap:round;stroke-linejoin:round;stroke-miterlimit:4;stroke-dasharray:none;stroke-opacity:1"
     d="m 2987.7871,3390.5164 c -44.0033,-19.2195 -84.7294,-36.8589 -90.4965,-39.1941 l -10.492,-4.2588 29.4736,-23.2092 c 16.2126,-12.7607 32.3817,-25.3259 35.9349,-27.9188 4.8292,-3.5249 6.7909,-8.0727 7.7867,-18.0563 l 1.3237,-13.3341 113.2232,-88.6388 113.2209,-88.6435 15.2776,2.0787 c 8.401,1.1407 15.665,2.5772 16.137,3.2013 16.3828,21.6109 39.0178,46.9482 58.5416,65.5255 l 24.8345,23.633 -117.0494,122.1084 c -64.3731,67.1618 -117.197,122.0078 -117.3787,121.8756 -0.2112,-0.2113 -36.335,-15.9523 -80.3426,-35.1702 z"
     id="path8526" />
  <path
     style="fill:#63d8b7;fill-opacity:0.5;stroke:none;stroke-width:0.271222;stroke-linecap:round;stroke-linejoin:round;stroke-miterlimit:4;stroke-dasharray:none;stroke-opacity:1"
     d="m 3152.6297,3461.992 -77.8988,-33.9914 29.0806,-30.7551 c 15.9972,-16.9156 68.1376,-71.4464 115.87,-121.1856 l 86.7941,-90.4319 28.4765,26.3623 c 15.6621,14.4917 40.0758,35.7887 54.2435,47.3272 14.1749,11.5342 25.6204,22.4715 25.4417,24.3161 -0.5915,6.1279 -175.4418,212.8149 -179.8346,212.5796 -2.3503,-0.2112 -39.3263,-15.5281 -82.173,-34.2212 z"
     id="path8565" />
  <path
     style="fill:#63d8b7;fill-opacity:0.5;stroke:none;stroke-width:0.271222;stroke-linecap:round;stroke-linejoin:round;stroke-miterlimit:4;stroke-dasharray:none;stroke-opacity:1"
     d="m 3318.1594,3533.6974 -75.1023,-32.7408 5.9404,-7.4812 c 23.7529,-29.8961 171.7787,-205.6574 173.2828,-205.7503 1.0419,0 8.9752,5.7502 17.631,12.9285 8.6511,7.1724 33.6774,26.5144 55.6052,42.9737 l 39.8726,29.9202 -69.069,96.0326 c -37.9883,52.8099 -69.9673,96.2104 -71.0603,96.4398 -1.0842,0.2409 -35.7913,-14.3185 -77.1004,-32.3225 z"
     id="path8604" />
  <path
     style="fill:#63d8b7;fill-opacity:0.5;stroke:none;stroke-width:0.271222;stroke-linecap:round;stroke-linejoin:round;stroke-miterlimit:4;stroke-dasharray:none;stroke-opacity:1"
     d="m 3478.6993,3603.1763 c -39.5304,-17.1649 -72.8584,-32.1565 -74.0583,-33.3256 -1.603,-1.5577 120.9081,-176.4402 133.6731,-190.8221 1.0423,-1.169 4.7996,0.2113 8.3401,3.0729 5.0011,4.0517 7.6895,11.192 12.0527,31.979 l 5.6205,26.7628 38.3744,26.5187 38.3757,26.522 -42.2458,70.4417 c -23.2346,38.739 -43.5936,70.3589 -45.251,70.255 -1.6452,0 -35.3464,-14.2383 -74.8814,-31.4044 z"
     id="path8643" />
  <path
     style="fill:#63d8b7;fill-opacity:0.5;stroke:none;stroke-width:0.271222;stroke-linecap:round;stroke-linejoin:round;stroke-miterlimit:4;stroke-dasharray:none;stroke-opacity:1"
     d="m 3633.6977,3367.7618 c -30.355,-21.2741 -55.1278,-39.7784 -55.0404,-41.1135 0.3507,-5.4346 96.8721,-131.2466 99.8228,-130.1173 2.9558,1.1268 92.2922,65.1301 96.3072,68.9888 2.0563,1.9688 -79.6607,139.4727 -83.4268,140.3515 -1.3377,0.3084 -27.3033,-16.8324 -57.6628,-38.1095 z"
     id="path8682" />
  <path
     style="fill:#63d8b7;fill-opacity:0.5;stroke:none;stroke-width:0.271222;stroke-linecap:round;stroke-linejoin:round;stroke-miterlimit:4;stroke-dasharray:none;stroke-opacity:1"
     d="m 3528.8754,3291.3865 c -22.3756,-17.1493 -46.1395,-35.8027 -52.8066,-41.4485 -14.6764,-12.4312 -19.4181,-3.7337 43.9595,-80.6439 l 47.2033,-57.2855 9.3048,7.8699 c 5.1135,4.3264 28.5174,21.9726 52.0139,39.2135 23.4953,17.2393 42.7177,31.7171 42.7177,32.1607 0,1.7956 -98.0664,130.2948 -99.8185,130.7862 -1.0423,0.3084 -20.1955,-13.5031 -42.5741,-30.6524 z"
     id="path8721" />
  <path
     style="fill:#63d8b7;fill-opacity:0.5;stroke:none;stroke-width:0.271222;stroke-linecap:round;stroke-linejoin:round;stroke-miterlimit:4;stroke-dasharray:none;stroke-opacity:1"
     d="m 3428.8599,3211.3185 c -16.2252,-13.3468 -40.5274,-34.5491 -53.9967,-47.1214 l -24.5025,-22.8556 42.0869,-44.1723 c 23.1501,-24.2955 48.5579,-51.2734 56.4612,-59.9443 l 14.3819,-15.7665 16.5215,16.0664 c 12.1071,11.7776 71.1164,61.8088 82.4986,69.9504 0.7605,0.5353 -92.6724,116.1609 -100.983,124.9586 -2.2114,2.3406 -10.4797,-3.0323 -32.4679,-21.1153 z"
     id="path8760" />
  <path
     style="fill:#63d8b7;fill-opacity:0.5;stroke:none;stroke-width:0.271222;stroke-linecap:round;stroke-linejoin:round;stroke-miterlimit:4;stroke-dasharray:none;stroke-opacity:1"
     d="m 3320.8829,3113.214 c -12.9581,-12.2381 -30.4538,-30.7719 -38.881,-41.1866 l -15.3241,-18.9394 1.818,-14.9632 c 1.0001,-8.2291 2.631,-15.7593 3.6264,-16.7352 1,-0.9718 22.4322,-17.9031 47.6495,-37.6152 l 45.8472,-35.8521 15.1762,1.7099 c 13.4084,1.5138 16.093,2.8924 23.0528,11.8469 4.3307,5.5782 18.6167,20.618 31.7539,33.4307 l 23.8839,23.2983 -55.6745,58.7499 c -30.6241,32.3073 -56.5094,58.6937 -57.5247,58.6232 -1.014,0 -12.451,-10.1413 -25.4078,-22.3769 z"
     id="path8799" />
  <path
     style="fill:#63d8b7;fill-opacity:0.5;stroke:none;stroke-width:0.271222;stroke-linecap:round;stroke-linejoin:round;stroke-miterlimit:4;stroke-dasharray:none;stroke-opacity:1"
     d="m 3606.2309,3463.1767 c -24.3867,-16.955 -36.9362,-27.4118 -38.2895,-31.9144 -1.0985,-3.6787 -4.001,-16.0453 -6.4334,-27.4794 l -4.4193,-20.787 -47.6525,-35.7591 c -107.3192,-80.537 -230.3779,-189.1364 -269.9353,-238.2081 -9.2105,-11.4244 -16.9067,-21.0603 -17.1011,-21.4055 -0.2112,-0.3507 -6.7828,-1.559 -14.6396,-2.7082 l -14.2792,-2.077 35.6928,-27.9712 35.694,-27.9678 -1.6883,14.4072 -1.6874,14.414 17.0804,20.6674 c 23.9654,28.995 105.6659,105.418 163.5442,152.9632 59.6414,48.9961 138.9603,108.7545 201.1337,151.5355 l 46.54,32.0129 -20.4802,34.318 c -11.2681,18.876 -21.905,35.866 -23.6317,37.7503 -2.4915,2.7226 -10.7345,-1.8391 -39.4193,-21.7824 z"
     id="path8838" />
  <path
     style="fill:#63d8b7;fill-opacity:0.5;stroke:none;stroke-width:0.271222;stroke-linecap:round;stroke-linejoin:round;stroke-miterlimit:4;stroke-dasharray:none;stroke-opacity:1"
     d="m 4524.8955,3069.3856 -80.733,-52.3212 -209.3175,-182.7426 c -115.1258,-100.5043 -221.2438,-193.4163 -235.8158,-206.4686 l -26.5077,-23.7318 -21.1178,0.2112 -21.1195,0.2113 -59.6667,63.9399 -59.6697,63.9369 -1.3381,15.5505 -1.3376,15.5425 -37.5928,-36.2788 -37.597,-36.2801 h 17.2566 17.252 l 81.365,-86.7278 c 44.7554,-47.6986 85.724,-91.5219 91.0585,-97.3719 l 9.6879,-10.6487 52.6929,50.6806 c 28.978,27.8723 147.7031,133.6646 263.8356,235.0929 l 211.1444,184.4128 83.4849,54.1772 83.4805,54.1797 -16.385,20.4085 c -9.0161,11.2283 -17.7167,21.8288 -19.3374,23.5725 -2.2054,2.3618 -23.3617,-10.064 -83.6864,-49.1566 z"
     id="path8877" />
  <path
     style="fill:#63d8b7;fill-opacity:0.5;stroke:none;stroke-width:0.271222;stroke-linecap:round;stroke-linejoin:round;stroke-miterlimit:4;stroke-dasharray:none;stroke-opacity:1"
     d="m 4235.4154,3028.4115 c -29.0879,-13.9738 -84.6213,-40.3673 -123.411,-58.6586 -69.3352,-32.6846 -71.7164,-34.0873 -142.0517,-83.4873 -39.3499,-27.6399 -90.3601,-65.2424 -113.3593,-83.5608 l -41.819,-33.3141 0.8027,-17.2494 0.8028,-17.2477 58.3117,-62.454 58.3165,-62.4522 18.1349,-0.2113 18.1409,-0.2112 186.6364,163.1817 c 102.6451,89.7462 186.2735,164.5046 185.8311,166.1186 -3.5773,13.0949 -48.6242,115.3889 -50.7266,115.2115 -1.4944,-0.2113 -26.5161,-11.6635 -55.601,-25.6441 z"
     id="path8916" />
  <path
     style="fill:#63d8b7;fill-opacity:0.5;stroke:none;stroke-width:0.271222;stroke-linecap:round;stroke-linejoin:round;stroke-miterlimit:4;stroke-dasharray:none;stroke-opacity:1"
     d="m 4154.0123,3191.1315 c -34.9986,-17.2604 -64.0485,-31.8016 -64.5525,-32.3057 -1.0846,-1.0845 69.407,-153.6535 72.3882,-156.7124 1.8184,-1.8603 120.5519,52.4618 126.0926,57.7051 2.835,2.6719 -63.5288,162.5104 -67.5155,162.616 -1.5143,0 -31.4129,-14.0464 -66.4128,-31.303 z"
     id="path8955" />
  <path
     style="fill:#63d8b7;fill-opacity:0.5;stroke:none;stroke-width:0.271222;stroke-linecap:round;stroke-linejoin:round;stroke-miterlimit:4;stroke-dasharray:none;stroke-opacity:1"
     d="m 4021.9274,3127.1637 -60.24,-29.8002 26.1599,-52.4044 26.157,-52.3984 19.1701,8.7897 c 24.8037,11.3749 97.4948,45.7128 98.9042,46.7183 0.6059,0.4369 -10.2511,25.2081 -24.123,55.0632 -13.8694,29.8551 -25.3445,54.1827 -25.5021,54.0576 -0.2113,-0.2112 -27.3907,-13.6413 -60.5261,-30.0258 z"
     id="path8994" />
  <path
     style="fill:#63d8b7;fill-opacity:0.5;stroke:none;stroke-width:0.271222;stroke-linecap:round;stroke-linejoin:round;stroke-miterlimit:4;stroke-dasharray:none;stroke-opacity:1"
     d="m 3968.256,3276.3218 c -61.3065,-32.4877 -56.9475,-29.0752 -60.6655,-47.4962 l -3.1899,-15.8099 27.0725,-54.922 c 14.886,-30.2063 27.5398,-54.9238 28.1199,-54.9238 1.0985,0 119.3833,57.0164 120.5253,58.1035 0.8733,0.8171 -61.5848,135.2874 -63.9314,137.6463 -0.9996,1 -22.5725,-9.1624 -47.9309,-22.5979 z"
     id="path9033" />
  <path
     style="fill:#63d8b7;fill-opacity:0.5;stroke:none;stroke-width:0.271222;stroke-linecap:round;stroke-linejoin:round;stroke-miterlimit:4;stroke-dasharray:none;stroke-opacity:1"
     d="m 4079.4634,3331.1201 c -37.5826,-17.5507 -56.6965,-27.8669 -56.184,-30.3102 1.559,-7.398 61.5485,-135.2549 63.4637,-135.2549 1.9913,0 129.8186,61.609 131.6903,63.4819 0.5636,0.5632 -8.9316,24.6486 -21.0937,53.5236 -12.168,28.8753 -22.7419,54.0081 -23.491,55.8574 -1.7099,4.1857 -28.6413,19.7701 -33.6944,19.4997 -2.0563,-0.2113 -29.3709,-12.1706 -60.6909,-26.7975 z"
     id="path9072" />
  <path
     style="fill:#63d8b7;fill-opacity:0.5;stroke:none;stroke-width:0.271222;stroke-linecap:round;stroke-linejoin:round;stroke-miterlimit:4;stroke-dasharray:none;stroke-opacity:1"
     d="m 4194.7299,3382.3102 c -20.1406,-8.7572 -38.9938,-16.9634 -41.9065,-18.2339 -4.5812,-1.9912 -3.3306,-3.3787 9.3541,-10.2426 l 14.6498,-7.9219 85.225,-202.7028 85.2242,-202.7045 9.837,8.0769 c 5.4165,4.4434 14.6523,12.2495 20.5251,17.3508 l 10.6922,9.2764 -82.3186,195.5698 -82.3127,195.5723 4.3162,15.5087 c 2.369,8.5302 4.094,15.7043 3.8236,15.9422 -0.283,0.2408 -16.9701,-6.7347 -37.1094,-15.4914 z"
     id="path9111" />
  <path
     style="fill:#5b8ec3;fill-opacity:0.5;stroke:none;stroke-width:0.271222;stroke-linecap:round;stroke-linejoin:round;stroke-miterlimit:4;stroke-dasharray:none;stroke-opacity:1"
     d="m 3923.2103,4344.097 -139.7939,-85.3547 -111.7288,-309.308 -111.7162,-309.3062 109.9852,-183.7216 c 60.491,-101.0434 111.0613,-184.0959 112.3782,-184.5492 1.3237,-0.4508 32.0944,14.9451 68.3956,34.2351 173.7869,92.3345 353.4394,172.3222 523.0043,232.8537 35.0578,12.5162 64.0607,23.6376 64.4608,24.7078 0.3929,1.0563 7.1643,15.8848 15.044,32.9073 l 14.3295,30.9511 -27.9509,100.5913 c -40.6897,146.413 -40.4265,145.3441 -36.7592,147.6146 1.731,1.0841 95.4372,27.4904 208.1984,58.7076 l 205.0211,56.7405 -190.6578,190.5108 -190.6571,190.5107 -180.3669,28.651 c -99.1971,15.7609 -182.8436,28.6442 -185.8801,28.6328 -3.0365,0 -68.4239,-38.4289 -145.3062,-85.3746 z"
     id="path9150" />
  <path
     style="fill:#63d8b7;fill-opacity:0.5;stroke:none;stroke-width:0.271222;stroke-linecap:round;stroke-linejoin:round;stroke-miterlimit:4;stroke-dasharray:none;stroke-opacity:1"
     d="m 4293.292,3422.8431 -54.677,-21.7304 -4.5896,-16.9676 -4.5943,-16.9676 20.9856,-50.1833 20.9872,-50.1828 65.4085,24.423 c 35.9674,13.4397 65.8171,24.7331 66.3253,25.1079 0.4931,0.3676 -9.8539,29.4554 -23.0288,64.6285 -16.9633,45.2709 -25.1531,63.8918 -28.0514,63.7722 -2.2448,0 -28.6933,-9.9499 -58.7655,-21.8999 z"
     id="path9189" />
  <path
     style="fill:#63d8b7;fill-opacity:0.5;stroke:none;stroke-width:0.271222;stroke-linecap:round;stroke-linejoin:round;stroke-miterlimit:4;stroke-dasharray:none;stroke-opacity:1"
     d="m 4408.7232,3465.3411 c -33.6547,-12.0104 -46.944,-17.9393 -46.32,-20.6674 1.7745,-7.9033 44.6836,-120.5604 46.7906,-122.8672 2.1632,-2.3884 130.0764,43.8428 129.896,46.9469 0,0.8733 -5.367,20.4435 -11.8072,43.4993 l -11.7261,41.9289 -29.8213,13.9945 -29.8188,13.9974 z"
     id="path9228" />
  <path
     style="fill:#63d8b7;fill-opacity:0.5;stroke:none;stroke-width:0.271222;stroke-linecap:round;stroke-linejoin:round;stroke-miterlimit:4;stroke-dasharray:none;stroke-opacity:1"
     d="m 4475.4418,3337.7123 c -32.8113,-12.5017 -60.6908,-23.1247 -61.9372,-23.6148 -1.818,-0.7182 44.3443,-127.788 47.6284,-131.0666 0.6477,-0.6477 114.1217,38.4094 117.824,40.5697 0.2408,0.2112 -7.1892,27.7244 -16.5168,61.2895 -9.3275,33.5647 -17.7929,64.3789 -18.8069,68.4814 -1.014,4.1012 -3.3419,7.3713 -5.1815,7.2657 -1.8391,0 -30.1918,-10.4273 -63.01,-22.9249 z"
     id="path9267" />
  <path
     style="fill:#63d8b7;fill-opacity:0.5;stroke:none;stroke-width:0.271222;stroke-linecap:round;stroke-linejoin:round;stroke-miterlimit:4;stroke-dasharray:none;stroke-opacity:1"
     d="m 4341.1908,3287.287 c -35.0574,-13.1664 -64.5901,-24.2739 -65.6295,-24.6897 -2.9,-1.1686 50.2957,-126.8104 53.7065,-126.8471 3.0999,0 123.3252,42.6615 125.0799,44.4149 1.0423,1.0418 -43.3472,120.7547 -47.1945,127.2738 -1.7762,3.0404 -14.7258,-0.9155 -65.9624,-20.1519 z"
     id="path9306" />
  <path
     style="fill:#63d8b7;fill-opacity:0.5;stroke:none;stroke-width:0.271222;stroke-linecap:round;stroke-linejoin:round;stroke-miterlimit:4;stroke-dasharray:none;stroke-opacity:1"
     d="m 4452.5508,3173.3797 c -66.2945,-23.7698 -121.0057,-43.6907 -121.5828,-44.267 -1.4298,-1.4281 59.9848,-147.9029 62.0496,-147.9553 0.9155,0 11.9948,9.0246 24.633,20.1085 13.4963,11.8342 55.342,41.023 101.4144,70.7417 43.1344,27.8275 80.1581,52.2662 82.2592,54.3014 3.2972,3.1827 2.1437,9.8358 -8.1133,47.2422 -8.8471,32.2271 -13.0117,43.4698 -16.0368,43.2911 -2.249,-0.2113 -58.3263,-19.6944 -124.6233,-43.4626 z"
     id="path9345" />
  <path
     style="fill:#f7db49;fill-opacity:0.5;stroke:none;stroke-width:0.271222;stroke-linecap:round;stroke-linejoin:round;stroke-miterlimit:4;stroke-dasharray:none;stroke-opacity:1"
     d="m 4446.2877,3883.6075 c -22.0038,-6.1275 -40.0049,-12.0074 -40.0049,-13.0793 0,-3.6305 206.0969,-746.1222 207.9796,-749.2951 1.0423,-1.7306 45.9464,-58.0684 99.8139,-125.1965 l 97.9313,-122.0463 13.362,-38.5912 c 7.3515,-21.2234 14.158,-37.0883 15.1276,-35.2618 0.9747,1.8184 2.6081,21.4955 3.647,43.6966 l 1.8827,40.364 19.0277,28.3569 c 10.4577,15.5932 18.617,28.6907 18.1235,29.1061 -0.4972,0.4098 -9.0702,3.4391 -19.0691,6.7177 l -18.1687,5.9729 -79.5982,99.4915 c -43.7735,54.7277 -80.5023,100.9915 -81.6105,102.8184 -1.104,1.818 -41.577,146.3214 -89.9152,321.1211 -83.2635,301.0439 -87.6942,318.2099 -83.9691,325.4106 5.3502,10.35 5.4292,9.6698 -6.1558,53.2912 -7.5306,28.3781 -11.3357,38.5928 -14.3244,38.4475 -2.2418,-0.2112 -22.0685,-5.2065 -44.0752,-11.3243 z"
     id="path9384" />
  <path
     style="fill:#7fffdf;fill-opacity:0.5;stroke:none;stroke-width:0.271222;stroke-linecap:round;stroke-linejoin:round;stroke-miterlimit:4;stroke-dasharray:none;stroke-opacity:1"
     d="m 4719.9909,3469.3832 c -57.9294,-16.1987 -105.9989,-30.1243 -106.8126,-30.9439 -0.8172,-0.8171 13.6239,-56.4109 32.0994,-123.5491 l 33.5845,-122.0687 13.8335,-5.6472 13.8318,-5.6505 83.8075,60.112 c 46.0956,33.0564 85.4371,61.647 87.4368,63.5385 3.0019,2.8447 -0.8872,19.6687 -22.8306,98.7045 -14.5412,52.4039 -27.1566,95.2061 -28.0308,95.1174 -0.8661,0 -48.9871,-13.4203 -106.9195,-29.613 z"
     id="path9423" />
  <path
     style="fill:#99d24a;fill-opacity:0.5;stroke:none;stroke-width:0.271222;stroke-linecap:round;stroke-linejoin:round;stroke-miterlimit:4;stroke-dasharray:none;stroke-opacity:1"
     d="m 6150.2448,3861.3853 c -35.0557,-6.2572 -75.3322,-14.2044 -89.5033,-17.6588 -39.9871,-9.7386 -195.3543,-70.3913 -325.4652,-127.057 -403.3899,-175.6658 -520.535,-241.3024 -840.1127,-470.6946 l -155.2768,-111.4597 v -19.5068 -19.5166 l 55.3522,-68.7551 55.35,-68.7602 18.4067,-5.9855 c 10.1222,-3.29 18.5583,-5.708 18.7446,-5.3755 0.2155,0.3253 22.8302,35.283 50.329,77.6707 46.9288,72.3616 52.7335,80.0752 94.94,126.1205 24.7264,26.9766 59.0444,62.4751 76.2676,78.8837 l 31.3098,29.834 181.8336,99.83 181.8338,99.8325 331.8078,146.5665 c 201.2833,88.9054 362.1877,158.2474 409.0282,176.2784 42.4684,16.3405 77.6154,30.1182 78.1042,30.6058 0.4871,0.4926 -20.3569,14.4562 -46.3229,31.0436 -34.2436,21.8745 -49.3645,30.0651 -55.0501,29.82 -4.3112,-0.2112 -36.5209,-5.4557 -71.5765,-11.7159 z"
     id="path9462" />
  <path
     style="fill:#99d24a;fill-opacity:0.5;stroke:none;stroke-width:0.271222;stroke-linecap:round;stroke-linejoin:round;stroke-miterlimit:4;stroke-dasharray:none;stroke-opacity:1"
     d="m 4924.9042,2950.9757 -51.4824,-78.9682 -1.9697,-44.5919 c -1.0816,-24.5321 -1.3195,-45.2498 -0.5197,-46.0398 0.7791,-0.7749 28.6932,17.0985 62.0031,39.75 56.7287,38.5954 61.5308,42.5192 76.0551,62.1485 8.5227,11.5229 16.2253,22.8513 17.121,25.1835 1.6232,4.2479 -44.6393,121.4646 -47.9525,121.4772 -0.9747,0 -24.9296,-35.5322 -53.2464,-78.9593 z"
     id="path9501" />
  <path
     style="fill:#f7db49;fill-opacity:0.5;stroke:none;stroke-width:0.271222;stroke-linecap:round;stroke-linejoin:round;stroke-miterlimit:4;stroke-dasharray:none;stroke-opacity:1"
     d="m 6135.5316,3959.3267 -40.4793,-8.5852 -12.4088,-25.767 -12.4092,-25.7683 -58.3131,-16.5818 c -43.0924,-12.2508 -75.3051,-23.6866 -123.405,-43.8175 -80.8488,-33.8266 -305.4392,-132.2787 -406.8329,-178.3439 -98.9093,-44.9358 -273.192,-137.593 -348.5242,-185.2861 -32.0698,-20.3066 -135.8139,-92.3868 -230.5379,-160.1782 -94.7258,-67.7901 -177.3689,-126.9105 -183.6536,-131.3776 l -11.4274,-8.1247 -11.4248,4.4912 c -6.2935,2.4729 -11.9056,4.0163 -12.481,3.4404 -0.5844,-0.5915 -0.2155,-5.4659 0.7786,-10.8722 1.2337,-6.6362 9.6503,-19.5803 25.9386,-39.9389 l 24.1027,-30.12 v 17.5519 17.5519 l 156.6292,112.4429 c 323.0173,231.8764 443.5901,299.0763 861.8114,480.3263 136.0412,58.9569 264.3308,108.0035 314.31,120.1572 21.0524,5.1164 64.5111,13.6822 96.5751,19.0323 32.0635,5.3544 58.7554,10.1894 59.3143,10.7471 2.2663,2.2646 -39.6288,86.7376 -43.2247,87.1559 -2.1319,0.2408 -22.0857,-3.4151 -44.349,-8.1357 z"
     id="path9540" />
  <path
     style="fill:#7fffdf;fill-opacity:0.5;stroke:none;stroke-width:0.271222;stroke-linecap:round;stroke-linejoin:round;stroke-miterlimit:4;stroke-dasharray:none;stroke-opacity:1"
     d="m 4658.5226,3697.2501 c -57.4363,-15.9451 -105.7437,-29.5133 -107.3673,-30.147 -2.6998,-1.0563 54.9757,-216.8186 59.0553,-220.8983 1.6241,-1.624 210.7827,55.149 214.3668,58.1977 1.9908,1.6888 -56.5706,217.0864 -59.8602,220.1774 -0.9747,0.9017 -48.7667,-11.3821 -106.1946,-27.3298 z"
     id="path9579" />
  <path
     style="fill:#7fffdf;fill-opacity:0.5;stroke:none;stroke-width:0.271222;stroke-linecap:round;stroke-linejoin:round;stroke-miterlimit:4;stroke-dasharray:none;stroke-opacity:1"
     d="m 4600.7682,3926.2251 c -54.8846,-15.2383 -100.1906,-28.1583 -100.6794,-28.7144 -0.4926,-0.5636 4.0729,-19.0872 10.1417,-41.1798 10.7061,-39.0221 10.8988,-40.4797 6.8669,-51.5293 -4.0911,-11.213 -3.9238,-12.1877 11.9314,-69.6815 8.84,-32.072 17.0365,-59.3262 18.2069,-60.5612 1.9917,-2.0998 211.021,53.9292 214.6676,57.5445 1.4936,1.4927 -57.8994,219.1223 -60.3342,221.0223 -0.562,0.4364 -45.9161,-11.6737 -100.8009,-26.9006 z"
     id="path9618" />
  <path
     style="fill:#00b9db;fill-opacity:0.5;stroke:none;stroke-width:0.271222;stroke-linecap:round;stroke-linejoin:round;stroke-miterlimit:4;stroke-dasharray:none;stroke-opacity:1"
     d="m 4845.6635,3991.2056 c -37.1643,-5.9078 -137.015,-34.5774 -136.6969,-39.2418 0.4322,-6.3362 175.3109,-635.6807 177.2759,-637.9398 1.8611,-2.142 59.7758,37.649 59.7758,41.0839 0,1.0846 -6.3388,4.956 -14.0782,8.5966 l -14.0781,6.6177 -74.5315,269.0818 -74.532,269.0761 4.6577,10.2824 c 9.5375,21.0599 10.1763,21.4051 61.3579,33.252 26.1093,6.0346 49.6041,11.8892 52.227,12.9919 4.3069,1.8167 3.9237,3.3715 -4.0083,16.2506 -4.8195,7.8306 -10.0158,14.0963 -11.544,13.9273 -1.5146,-0.2113 -13.1452,-1.9477 -25.8253,-3.9787 z"
     id="path9657" />
  <path
     style="fill:#00b9db;fill-opacity:0.5;stroke:none;stroke-width:0.271222;stroke-linecap:round;stroke-linejoin:round;stroke-miterlimit:4;stroke-dasharray:none;stroke-opacity:1"
     d="m 4909.3241,3626.5798 c -23.7331,-16.4395 -44.0895,-30.8298 -45.2455,-31.9832 -1.9046,-1.9042 27.8668,-115.5044 31.1281,-118.7635 1.0816,-1.0842 63.2605,41.9234 116.8813,80.8285 4.748,3.4433 3.2072,6.5715 -25.4667,51.7368 -16.7833,26.4371 -31.3292,48.0661 -32.3246,48.0661 -0.9958,0 -21.2331,-13.4452 -44.9726,-29.8847 z"
     id="path9696" />
  <path
     style="fill:#00b9db;fill-opacity:0.5;stroke:none;stroke-width:0.271222;stroke-linecap:round;stroke-linejoin:round;stroke-miterlimit:4;stroke-dasharray:none;stroke-opacity:1"
     d="m 4950.6349,3506.2404 c -28.0464,-19.9462 -51.632,-36.9223 -52.4305,-37.7208 -0.8015,-0.8027 4.391,-22.7178 11.5156,-48.721 l 12.9572,-47.2794 15.4914,-6.1571 c 8.5164,-3.3813 16.6127,-5.7025 17.985,-5.1617 6.1875,2.4408 111.9164,79.4456 111.9164,81.5019 0,2.1759 -64.4118,99.8689 -65.8119,99.8338 -0.3465,0 -23.5836,-16.3423 -51.6232,-36.2957 z"
     id="path9735" />
  <path
     style="fill:#00b9db;fill-opacity:0.5;stroke:none;stroke-width:0.271222;stroke-linecap:round;stroke-linejoin:round;stroke-miterlimit:4;stroke-dasharray:none;stroke-opacity:1"
     d="m 5066.7088,3584.2931 c -29.8362,-18.8334 -55.3847,-35.294 -56.7722,-36.5885 -1.5151,-1.4082 10.9077,-22.4475 31.0284,-52.5405 31.7538,-47.4864 33.8638,-50.0003 39.1488,-46.6131 3.0665,1.9688 27.2454,17.2916 53.7205,34.0577 26.4836,16.7648 48.1494,31.1721 48.1494,32.02 0,1.818 -52.6076,92.4582 -57.5986,99.2381 -3.1143,4.225 -8.4728,1.4716 -57.6763,-29.5737 z"
     id="path9774" />
  <path
     style="fill:#00b9db;fill-opacity:0.5;stroke:none;stroke-width:0.271222;stroke-linecap:round;stroke-linejoin:round;stroke-miterlimit:4;stroke-dasharray:none;stroke-opacity:1"
     d="m 5177.7722,3649.1848 c -26.7802,-14.2619 -49.1342,-26.3412 -49.6886,-26.8342 -1.2983,-1.1408 56.7093,-101.2407 59.7783,-103.1407 1.2772,-0.7745 23.6292,9.8514 49.6818,23.6275 l 47.3683,25.0529 -5.0126,8.3516 c -2.7611,4.5896 -13.946,25.4358 -24.8621,46.3212 -10.9166,20.8842 -21.8112,41.2559 -24.2198,45.2667 l -4.3716,7.291 z"
     id="path9813" />
  <path
     style="fill:#00b9db;fill-opacity:0.5;stroke:none;stroke-width:0.271222;stroke-linecap:round;stroke-linejoin:round;stroke-miterlimit:4;stroke-dasharray:none;stroke-opacity:1"
     d="m 5004.3292,3690.3068 c -23.8671,-15.4534 -43.2391,-29.082 -43.0486,-30.2874 0.7141,-4.552 59.4272,-95.5272 61.7172,-95.6455 3.5773,-0.2113 93.8647,57.8444 93.8752,60.3342 0,3.2461 -65.1148,94.1753 -67.2768,93.9163 -1.0169,-0.2113 -21.4021,-12.8694 -45.267,-28.3176 z"
     id="path9852" />
  <path
     style="fill:#00b9db;fill-opacity:0.5;stroke:none;stroke-width:0.271222;stroke-linecap:round;stroke-linejoin:round;stroke-miterlimit:4;stroke-dasharray:none;stroke-opacity:1"
     d="m 5113.4322,3753.2339 c -30.9874,-16.5814 -55.8545,-31.4226 -55.2592,-32.9689 3.3715,-8.7868 65.1647,-92.1401 67.777,-91.4303 7.5856,2.0559 96.7103,50.5154 96.7103,52.5911 0,1.5789 -48.3788,94.9526 -52.6275,101.558 -0.2155,0.2113 -25.609,-13.1668 -56.6006,-29.7499 z"
     id="path9891" />
  <path
     style="fill:#00b9db;fill-opacity:0.5;stroke:none;stroke-width:0.271222;stroke-linecap:round;stroke-linejoin:round;stroke-miterlimit:4;stroke-dasharray:none;stroke-opacity:1"
     d="m 5293.1816,3710.4913 c -30.5782,-16.2452 -56.8218,-30.0187 -58.3149,-30.6047 -2.7031,-1.0562 5.5276,-18.2465 37.4065,-78.0851 l 16.8397,-31.6115 52.889,28.1639 c 29.0853,15.4918 54.0821,28.5893 55.5536,29.106 1.8181,0.6481 -41.9555,101.8816 -48.5089,112.1458 -0.2154,0.2409 -25.287,-12.8723 -55.865,-29.1144 z"
     id="path9930" />
  <path
     style="fill:#00b9db;fill-opacity:0.5;stroke:none;stroke-width:0.271222;stroke-linecap:round;stroke-linejoin:round;stroke-miterlimit:4;stroke-dasharray:none;stroke-opacity:1"
     d="m 5241.6516,3821.4548 c -30.5826,-16.3465 -58.1681,-31.1647 -61.3039,-32.9422 -5.536,-3.129 -4.9538,-4.6179 20.6835,-52.8264 14.5133,-27.2922 27.0269,-50.2593 27.8166,-51.0494 1.9046,-1.9038 115.864,58.5995 115.864,61.5401 0,1.9042 -45.6047,103.3784 -47.0137,104.6037 -0.2366,0.2112 -25.4685,-12.9792 -56.0465,-29.3258 z"
     id="path9969" />
  <path
     style="fill:#00b9db;fill-opacity:0.5;stroke:none;stroke-width:0.271222;stroke-linecap:round;stroke-linejoin:round;stroke-miterlimit:4;stroke-dasharray:none;stroke-opacity:1"
     d="m 5186.0502,3917.9724 c -34.5947,-18.666 -62.009,-35.0861 -61.5439,-36.8673 1.104,-4.2195 43.9489,-84.2706 46.7298,-87.3112 2.5519,-2.7784 121.9455,59.8825 121.9455,63.9989 0,3.9702 -41.6654,94.3569 -43.358,94.0696 -0.7575,-0.2112 -29.4639,-15.3862 -63.7734,-33.89 z"
     id="path10008" />
  <path
     style="fill:#00b9db;fill-opacity:0.5;stroke:none;stroke-width:0.271222;stroke-linecap:round;stroke-linejoin:round;stroke-miterlimit:4;stroke-dasharray:none;stroke-opacity:1"
     d="m 5127.0603,4032.4953 c -41.3974,-6.1461 -75.2654,-12.1934 -75.2654,-13.4355 0,-2.6761 64.4917,-124.27 67.6081,-127.4598 2.5409,-2.6128 127.5962,63.3665 127.5185,67.2772 -0.2155,6.5065 -37.8674,84.1113 -41.062,84.4324 -1.9477,0.2112 -37.4064,-4.6729 -78.7992,-10.8143 z"
     id="path10047" />
  <path
     style="fill:#00b9db;fill-opacity:0.5;stroke:none;stroke-width:0.271222;stroke-linecap:round;stroke-linejoin:round;stroke-miterlimit:4;stroke-dasharray:none;stroke-opacity:1"
     d="m 5032.3189,3890.1732 c -32.3356,-17.407 -59.6481,-32.5156 -60.6891,-33.5803 -1.3634,-1.3803 39.8109,-70.4082 46.3123,-77.5933 0.4322,-0.4791 9.6482,4.1503 20.4845,10.2862 10.8253,6.1418 21.2809,10.5556 23.2176,9.8103 1.9262,-0.7322 8.3972,-10.8708 14.3532,-22.4963 5.9518,-11.6246 11.9466,-22.8052 13.3274,-24.8417 1.9912,-2.9393 10.2304,0.3507 40.2046,16.0973 l 37.7073,19.8025 -35.3438,67.2437 c -19.4435,36.9814 -36.5712,67.1703 -38.058,67.0829 -1.4931,0 -29.1715,-14.4014 -61.516,-31.8113 z"
     id="path10086" />
  <path
     style="fill:#00b9db;fill-opacity:0.5;stroke:none;stroke-width:0.271222;stroke-linecap:round;stroke-linejoin:round;stroke-miterlimit:4;stroke-dasharray:none;stroke-opacity:1"
     d="m 4960.3761,4008.0266 c -42.0751,-6.2598 -77.0509,-11.9508 -77.7261,-12.6395 -0.6705,-0.6904 17.7725,-31.2299 41.0032,-67.8805 l 42.2369,-66.6325 61.2587,32.4184 c 33.6927,17.827 62.1324,33.1832 63.1954,34.1186 2.9149,2.5688 -44.9206,91.0331 -49.5047,91.5557 -2.175,0.2408 -38.3888,-4.6758 -80.4634,-10.9402 z"
     id="path10125" />
  <path
     style="fill:#00b9db;fill-opacity:0.5;stroke:none;stroke-width:0.271222;stroke-linecap:round;stroke-linejoin:round;stroke-miterlimit:4;stroke-dasharray:none;stroke-opacity:1"
     d="m 4840.2116,3948.3417 c -26.1245,-6.2686 -48.7079,-12.1612 -50.1774,-13.092 -1.472,-0.9295 -5.6619,-7.2049 -9.3022,-13.9311 l -6.6243,-12.2385 17.0647,-61.895 c 9.3842,-34.0392 17.857,-63.3297 18.8287,-65.086 1.1902,-2.1433 25.4945,9.4289 74.1509,35.3209 39.8151,21.1883 73.2007,39.3292 74.1918,40.3221 3.0754,3.0758 -61.3558,102.5226 -66.2492,102.2463 -2.4155,-0.2113 -25.7628,-5.3797 -51.883,-11.6467 z"
     id="path10164" />
  <path
     style="fill:#00b9db;fill-opacity:0.5;stroke:none;stroke-width:0.271222;stroke-linecap:round;stroke-linejoin:round;stroke-miterlimit:4;stroke-dasharray:none;stroke-opacity:1"
     d="m 4890.7548,3814.9357 c -40.0965,-21.3024 -74.1377,-39.9684 -75.6461,-41.481 -1.8611,-1.8615 1.4501,-17.9503 10.2195,-49.6999 7.1398,-25.819 13.8491,-47.9356 14.9138,-49.141 1.0605,-1.2113 9.014,-3.835 17.6643,-5.8402 l 15.7318,-3.6576 68.4889,45.7145 c 58.9231,39.3221 68.7382,46.8456 70.2749,53.8265 0.973,4.4629 0.5408,10.4231 -0.9523,13.2454 -2.4412,4.5727 -46.5697,74.7752 -47.4375,75.485 -0.2155,0.2112 -33.1582,-17.1451 -73.2437,-38.4517 z"
     id="path10203" />
  <path
     style="fill:#00b9db;fill-opacity:0.5;stroke:none;stroke-width:0.271222;stroke-linecap:round;stroke-linejoin:round;stroke-miterlimit:4;stroke-dasharray:none;stroke-opacity:1"
     d="m 5038.9957,3783.5048 c -17.2595,-9.5388 -19.7941,-11.9526 -21.3633,-20.3392 -1.6663,-8.9076 -6.2716,-12.4963 -72.6379,-56.6995 l -70.8498,-47.2004 -14.9227,3.9926 c -8.202,2.1957 -15.66,4.004 -16.5713,4.0222 -1.3846,0 15.788,-65.1241 17.6731,-67.0465 0.3465,-0.3507 20.0625,12.9538 43.834,29.5555 54.9195,38.3673 143.906,95.3397 165.8857,106.2191 l 16.8984,8.3612 -12.4355,23.1716 c -6.8369,12.7452 -13.2213,23.9909 -14.1825,24.9825 -0.9519,0.9996 -10.5633,-3.0674 -21.3282,-9.0191 z"
     id="path10242" />
  <path
     style="fill:#c59fe0;fill-opacity:0.5;stroke:none;stroke-width:0.271222;stroke-linecap:round;stroke-linejoin:round;stroke-miterlimit:4;stroke-dasharray:none;stroke-opacity:1"
     d="m 5281.3951,4058.8901 c -8.7172,-3.6576 -25.8039,-8.0021 -37.9711,-9.6528 -12.1671,-1.6448 -23.469,-3.7459 -25.129,-4.6416 -1.9042,-1.0423 30.9811,-75.4602 90.0167,-203.7 51.1665,-111.1372 94.016,-203.6634 95.2235,-205.6179 1.7098,-2.7619 8.8214,-0.5353 31.5848,9.8667 l 29.3752,13.4312 -15.507,5.1727 -15.5109,5.1672 -59.5488,129.8104 -59.5484,129.806 12.825,28.04 12.8254,28.0397 -18.6297,40.6952 c -10.2541,22.3899 -19.8761,40.5997 -21.3912,40.47 -1.5151,-0.2113 -9.8971,-3.2292 -18.6145,-6.8868 z"
     id="path10281" />
  <path
     style="fill:#c59fe0;fill-opacity:0.5;stroke:none;stroke-width:0.271222;stroke-linecap:round;stroke-linejoin:round;stroke-miterlimit:4;stroke-dasharray:none;stroke-opacity:1"
     d="m 5363.7027,4091.6803 c -23.1268,-9.4754 -45.349,-18.4421 -49.3919,-19.9179 l -7.3498,-2.6774 18.8807,-40.9035 c 10.3753,-22.4926 18.8701,-42.0036 18.8701,-43.3514 0,-1.3381 -5.4798,-14.5805 -12.187,-29.3946 l -12.1845,-26.9513 58.6438,-127.7669 58.6464,-127.7694 16.8637,-5.6137 16.8658,-5.6138 58.7046,26.5262 c 32.2921,14.5932 58.4123,27.3425 58.0507,28.3329 -3.9364,10.8244 -180.0222,392.6105 -181.0197,392.4935 -0.7369,0 -20.2766,-7.916 -43.3929,-17.3927 z"
     id="path10320" />
  <path
     style="fill:#c59fe0;fill-opacity:0.5;stroke:none;stroke-width:0.271222;stroke-linecap:round;stroke-linejoin:round;stroke-miterlimit:4;stroke-dasharray:none;stroke-opacity:1"
     d="m 5485.1482,4140.0633 -72.0472,-28.6539 4.454,-9.93 c 54.2422,-120.8561 176.0317,-382.5833 178.0402,-382.6002 2.9368,0 136.2098,57.9682 138.5166,60.2852 0.7787,0.7745 -38.7136,88.7418 -87.7486,195.4792 l -89.1635,194.0766 z"
     id="path10359" />
  <path
     style="fill:#c59fe0;fill-opacity:0.5;stroke:none;stroke-width:0.271222;stroke-linecap:round;stroke-linejoin:round;stroke-miterlimit:4;stroke-dasharray:none;stroke-opacity:1"
     d="m 5634.5814,4199.3376 -72.2137,-28.9033 89.1724,-193.9232 c 56.2961,-122.4321 90.4193,-193.5966 92.5596,-193.0359 1.8612,0.493 22.2985,9.1374 45.4185,19.2206 23.1225,10.0809 53.3287,22.973 67.1258,28.6455 13.8031,5.6827 25.0877,11.4696 25.0877,12.8668 0,1.3799 -36.7897,82.6943 -81.7646,180.6551 -44.9749,97.9596 -84.3333,183.8015 -87.4716,190.7461 l -5.6983,12.6357 z"
     id="path10398" />
  <path
     style="fill:#c59fe0;fill-opacity:0.5;stroke:none;stroke-width:0.271222;stroke-linecap:round;stroke-linejoin:round;stroke-miterlimit:4;stroke-dasharray:none;stroke-opacity:1"
     d="m 5783.8483,4259.0326 -72.1188,-28.9286 87.649,-190.9193 c 48.1995,-105.0026 88.3134,-191.5856 89.1292,-192.4023 0.8226,-0.8167 17.0196,4.8575 36.0021,12.6117 18.9909,7.7558 51.4715,18.925 72.1795,24.8358 20.7113,5.8998 37.9654,11.0754 38.3427,11.5004 0.376,0.4099 -38.5515,86.2014 -86.5082,190.6236 -47.955,104.4166 -88.4022,192.4965 -89.8737,195.7328 -2.6318,5.7587 -4.086,5.3108 -74.8018,-23.0541 z"
     id="path10437" />
  <path
     style="fill:#c59fe0;fill-opacity:0.5;stroke:none;stroke-width:0.271222;stroke-linecap:round;stroke-linejoin:round;stroke-miterlimit:4;stroke-dasharray:none;stroke-opacity:1"
     d="m 5978.0177,4338.0511 c -11.9356,-5.3066 -43.1609,-18.3391 -69.3977,-28.9679 l -47.7083,-19.3125 89.5425,-195.2795 c 49.2424,-107.4079 89.8962,-195.7582 90.3398,-196.3357 0.4424,-0.5915 6.477,0.5353 13.4076,2.4801 12.3979,3.4687 12.8039,3.9448 25.1658,29.4879 l 12.5643,25.9567 42.7845,8.4728 c 23.5307,4.6573 43.3291,9.0162 43.9958,9.6808 2.0195,2.0124 -173.3632,373.6771 -176.2831,373.5715 -1.4889,0 -12.4764,-4.4417 -24.4112,-9.7542 z"
     id="path10476" />
</svg>
